<?xml version="1.0" encoding="UTF-8"?>
<svg id="Layer_1" xmlns="http://www.w3.org/2000/svg" version="1.1" xmlns:xlink="http://www.w3.org/1999/xlink" viewBox="0 0 500 500">
  <!-- Generator: Adobe Illustrator 29.5.1, SVG Export Plug-In . SVG Version: 2.1.0 Build 141)  -->
  <defs>
    <style>
      .st0 {
        fill: #d94f46;
      }

      .st1, .st2, .st3 {
        fill: none;
      }

      .st4 {
        clip-path: url(#clippath-1);
      }

      .st5 {
        isolation: isolate;
      }

      .st6 {
        clip-path: url(#clippath-3);
      }

      .st7 {
        fill: #4a2673;
        opacity: .3;
      }

      .st2 {
        stroke: #d94f46;
        stroke-miterlimit: 10;
        stroke-width: 3.2px;
      }

      .st8 {
        fill: #bfa55a;
      }

      .st3 {
        display: none;
      }

      .st9 {
        clip-path: url(#clippath-2);
      }

      .st10 {
        clip-path: url(#clippath);
      }
    </style>
    <clipPath id="clippath">
      <rect class="st1" x="241.3" y="141.3" width="17.3" height="17.4"/>
    </clipPath>
    <clipPath id="clippath-1">
      <rect class="st1" x="373.3" y="272" width="16.6" height="17.3"/>
    </clipPath>
    <clipPath id="clippath-2">
      <rect class="st1" x="109.9" y="272" width="16.7" height="17.3"/>
    </clipPath>
    <clipPath id="clippath-3">
      <rect class="st1" x="220" y="336" width="61.3" height="22.3"/>
    </clipPath>
  </defs>
  <g>
    <circle class="st7" cx="250.7" cy="251" r="240"/>
    <g class="st5">
      <image width="563" height="563" transform="translate(-31 -30)" xlink:href="1-1.png"/>
    </g>
  </g>
  <g>
    <circle class="st7" cx="250.7" cy="251" r="240"/>
    <g class="st5">
      <image width="563" height="563" transform="translate(-31 -30)" xlink:href="1-2.png"/>
    </g>
  </g>
  <g>
    <circle class="st7" cx="250.7" cy="251" r="240"/>
    <g class="st5">
      <image width="563" height="563" transform="translate(-31 -30)" xlink:href="1-3.png"/>
    </g>
  </g>
  <g>
    <circle class="st7" cx="250.7" cy="251" r="240"/>
    <g class="st5">
      <image width="563" height="563" transform="translate(-31 -30)" xlink:href="1-4.png"/>
    </g>
  </g>
  <rect class="st3" x="109.9" y="141.3" width="280" height="157.4"/>
  <path class="st2" d="M381.7,280.1c0-72.9-59.1-131.9-131.9-131.9s-131.9,59.1-131.9,131.9"/>
  <path class="st2" d="M159.1,148.2h181.1"/>
  <path class="st8" d="M345.3,147.9c0,2.9-2.4,5.3-5.3,5.3s-5.3-2.4-5.3-5.3,2.4-5.3,5.3-5.3,5.3,2.4,5.3,5.3Z"/>
  <path class="st8" d="M164.2,147.9c0,2.9-2.4,5.3-5.3,5.3s-5.3-2.4-5.3-5.3,2.4-5.3,5.3-5.3,5.3,2.4,5.3,5.3Z"/>
  <g class="st10">
    <path class="st8" d="M242.3,141.3h16.1v16.1h-16.1v-16.1Z"/>
  </g>
  <g class="st4">
    <path class="st8" d="M373.8,273.2h15.6v15.6h-15.6v-15.6Z"/>
  </g>
  <g class="st9">
    <path class="st8" d="M109.9,273.2h15.6v15.6h-15.6v-15.6Z"/>
  </g>
  <path class="st0" d="M247.9,165.6v87.6c-4.5,1-7.8,5.1-7.8,9.9s4.5,10.1,10.1,10.1,10.1-4.5,10.1-10.1-3.1-8.5-7.4-9.7v-87.7h8c10.8,29.5,33.1,90.6,36.1,99.1s1.2,15.3,0,17.7l-16.5,48h-59.3c-4.8-12.6-15.2-39.8-18.2-48s-1.2-15.2,0-17.7l37.9-99.1h6.9Z"/>
  <g class="st6">
    <path class="st8" d="M221.2,336.7h59.8v21.6h-59.8v-21.6Z"/>
  </g>
</svg>