<?xml version="1.0" encoding="UTF-8"?>
<svg id="Layer_1" xmlns="http://www.w3.org/2000/svg" version="1.1" xmlns:xlink="http://www.w3.org/1999/xlink" viewBox="0 0 500 500">
  <!-- Generator: Adobe Illustrator 29.5.1, SVG Export Plug-In . SVG Version: 2.1.0 Build 141)  -->
  <defs>
    <style>
      .st0 {
        fill: #d94f46;
      }

      .st1 {
        fill: none;
      }

      .st2 {
        isolation: isolate;
      }

      .st3 {
        fill: #4a2673;
        opacity: .3;
      }

      .st4 {
        fill: #bfa55a;
      }

      .st5 {
        clip-path: url(#clippath);
      }
    </style>
    <clipPath id="clippath">
      <rect class="st1" x="110.1" y="156" width="269.9" height="187.9"/>
    </clipPath>
  </defs>
  <g id="c11f5c95e3">
    <g>
      <circle class="st3" cx="250" cy="251.1" r="240"/>
      <g class="st2">
        <image width="562" height="563" transform="translate(-31 -30)" xlink:href="2-1.png"/>
      </g>
    </g>
    <g>
      <circle class="st3" cx="250" cy="251.1" r="240"/>
      <g class="st2">
        <image width="562" height="563" transform="translate(-31 -30)" xlink:href="2-2.png"/>
      </g>
    </g>
    <g>
      <circle class="st3" cx="250" cy="251.1" r="240"/>
      <g class="st2">
        <image width="562" height="563" transform="translate(-31 -30)" xlink:href="2-3.png"/>
      </g>
    </g>
    <g>
      <circle class="st3" cx="250" cy="251.1" r="240"/>
      <g class="st2">
        <image width="562" height="563" transform="translate(-31 -30)" xlink:href="2-4.png"/>
      </g>
    </g>
    <g class="st5">
      <path class="st0" d="M189.6,159.3c.5-1.6,2.2-2.7,3.9-2.7,7.3,0,14.6,0,21.8,0,1.8,0,3.4,1.3,3.9,3.1,1.8,6.3,3.5,12.6,5.5,18.8,0,.8.9.8,1.5,1,5.1,1.5,9.9,3.7,14.4,6.4,6-3.5,12-6.9,18.1-10.3,1.7-1,4.1-.7,5.4.8,5,5,9.9,10,14.9,15,1.5,1.3,1.7,3.6.7,5.2-3.5,6-7.1,11.9-10.5,18,3,5.1,5.3,10.5,6.6,16.2,3.8-.1,7.6-.1,11.4-.1,0-4.8,0-9.7,0-14.5,9.3,0,18.5,0,27.8,0,0-1.7,0-3.4,0-5.1-3-1.1-5.9-3-7.5-5.9-3.1-4.8-2.6-11.5,1-15.9,3.8-4.9,11.2-6.4,16.7-3.5,4.1,2.1,7.1,6.4,7.4,11,.6,6.2-3.7,12.5-9.7,14.1,0,4.4,0,8.8,0,13.2-9,.3-18.1,0-27.1,0,0,2.2,0,4.5,0,6.7,9.4,0,18.8.2,28.2-.1,6.4-6.7,13.1-13.1,19.9-19.5,3.2-.5,6.5,0,9.7-.2,1.4-5.1,6-9.1,11.2-9.7,6.2-.9,12.7,3.2,14.6,9.2,2.4,6.6-1.6,14.5-8.1,17-6.9,2.9-15.7-1.3-17.7-8.6-2.1,0-4.2,0-6.3,0-6.8,6.6-13.4,13.3-20.2,19.8-21.7,0-43.4.1-65,0-3.8-21.3-20.8-39.2-41.6-45-9.3-2.6-19.1-2.9-28.6-.9-19,3.9-35.3,18.1-42.2,36.1-5.1,12.9-5.4,27.7-.7,40.8,7,20.2,25.9,35.7,47.1,38.5,14.3,2.1,29.2-1.3,41.2-9.3,12.9-8.6,22.4-22.4,24.9-37.8,21.2-.1,42.4,0,63.5,0,1.2-.2,2,.8,2.8,1.6,6.3,6.2,12.5,12.6,18.9,18.7,2,.2,4,0,6.1.1,1.8-6.4,8.7-10.6,15.2-9.5,6.4,1,11.5,7,11.3,13.4,0,6.7-5.4,12.9-12.2,13.5-6.2.9-12.6-3.4-14.3-9.4-3.2,0-6.3,0-9.5,0-6.5-6.2-12.7-12.7-19.1-19-.6-.5-1.1-1.5-2-1.4-9.1,0-18.2,0-27.3,0,0,2.2,0,4.5,0,6.7,9.1,0,18.1,0,27.2,0,0,4.4,0,8.7,0,13.1,4.7,1.5,8.6,5.5,9.6,10.4,1.5,6.7-3,14.2-9.6,15.9-6.4,2-13.8-1.7-16.2-7.9-3.1-7,.9-16.2,8.3-18.4,0-1.7,0-3.4,0-5.1-9.2,0-18.3,0-27.5,0,0-4.9,0-9.7,0-14.6-3.8,0-7.6,0-11.4,0-1.3,5.9-3.8,11.5-6.8,16.7,3.4,5.8,6.9,11.6,10.4,17.4,1.2,1.7.9,4.1-.5,5.5-4.9,5-9.9,9.8-14.7,14.9-1.4,1.6-3.8,2.1-5.6,1.1-6.1-3.3-12.1-6.9-18.3-10-4.9,2.8-10.1,5-15.5,6.4-2.2,6.4-3.7,13.1-5.7,19.6-.6,1.8-2.3,3-4.2,3-7,0-14.1,0-21.1,0-1.9,0-3.7-1.4-4.3-3.2-2-6.4-3.6-12.8-5.7-19.2-5.5-1.5-10.8-3.7-15.7-6.6-6.1,3.3-12.1,6.7-18.1,10-1.8,1-4.1.4-5.5-1.1-4.9-5-9.8-9.9-14.7-14.8-1.4-1.3-1.7-3.6-.6-5.2,3.4-5.9,7-11.8,10.5-17.6-3.1-5.2-5.4-10.8-6.9-16.6-6.5-1.6-13-3-19.5-4.5-2-.3-3.4-2.3-3.3-4.2,0-7.4,0-14.8,0-22.1,0-1.7,1.2-3.3,2.9-3.5,6.6-1.4,13.3-2.7,20-4,1.4-5.8,3.8-11.2,6.7-16.3-3.4-6.1-7-12-10.4-18.1-1-1.7-.6-3.9.9-5.2,5-4.9,9.8-9.9,14.7-14.8,1.5-1.6,4-1.9,5.8-.6,5.8,3.4,11.7,6.7,17.5,10,4.9-2.9,10.1-5.1,15.5-6.7,2-6.6,3.9-13.2,5.8-19.8M317,192.5c-2.9.9-4.3,4.4-3.3,7.2,1,3.2,5.3,4.6,8.1,2.9,2.6-1.4,3.5-5.1,2-7.6-1.3-2.3-4.3-3.4-6.8-2.4M364.4,209.4c-4.2,1.3-4.9,7.8-1.1,10,3.3,2.1,8.3-.2,8.6-4.1.6-3.9-3.9-7.3-7.5-5.9M364.7,280c-2.9.8-4.6,4.1-3.7,7,.8,3,4.5,4.8,7.4,3.6,2.8-1,4.3-4.5,3.2-7.2-.9-2.7-4.2-4.3-6.9-3.4M317.3,296.5c-4.2,1-5.4,7.2-1.9,9.8,3,2.6,8.3.9,9-3.1,1.2-4-3.2-8-7.1-6.7Z"/>
    </g>
    <path class="st0" d="M197.9,196.1c17.5-2.3,35.8,4.6,47.4,17.9,6.2,7.1,10.7,15.8,12.6,25.1,3.9,16.9-1.3,35.6-13.4,48.1-10.3,11.2-25.5,17.6-40.7,17.3-7.5-.2-14.9-1.7-21.8-4.7-16.3-7.3-28.7-22.8-31.5-40.5-3-17.1,2.9-35.3,15.1-47.5,8.5-8.8,20.2-14.4,32.3-15.8M200,204.9c-18.4,1.5-34.7,15.5-39.4,33.3-3.7,12.6-1.3,26.8,6.2,37.5,6.9,10.1,18.1,17.3,30.2,19.1,15.9,2.7,33-3.5,43-16.2,8.3-10.5,11.8-24.7,8.8-37.8-2.2-11.4-9.4-21.6-18.8-28.3-8.7-6-19.5-8.5-30-7.6Z"/>
    <path class="st4" d="M189.3,228.2c.3-1.1,1.6-1.1,2.5-1.1,2.9,0,5.9,0,8.8,0,.8,0,1.4.6,1.5,1.3,4.6,14.5,9.7,28.9,14.2,43.4-2.2,1.1-4.9.3-7.3.5-1.4-.2-3.5.6-4.1-1-.9-2.5-1.6-5.1-2.4-7.6-4.6,0-9.3-.2-13.9,0-.7,2.4-1.4,4.8-2.2,7.3-.2.6-.6,1.4-1.4,1.3-3.1,0-6.2,0-9.3,0-.2-.4-.8-.7-.5-1.2,4.7-14.3,9.5-28.6,14.1-42.9M195.5,240.8c-1.4,4.6-2.9,9.2-4.2,13.8,2.9,0,5.7,0,8.6,0-1.5-4.6-2.8-9.2-4.4-13.8Z"/>
    <path class="st4" d="M220.7,227.3c2.8-.3,5.6,0,8.3-.2.9-.1,1.8.5,1.7,1.4,0,14.2,0,28.4,0,42.5.1.8-.6,1.4-1.3,1.3-2.7,0-5.4,0-8.1,0-.7.1-1.4-.6-1.3-1.3,0-14.2,0-28.3,0-42.5,0-.5.2-1.1.7-1.3Z"/>
    <path class="st0" d="M362.6,245.9c2.1-6.9,9.9-11.2,16.8-9,5.7,1.5,10,7.2,9.7,13.1.2,6.4-4.9,12.3-11.2,13.3-6.5,1.2-13.5-3-15.2-9.4-33.2,0-66.4,0-99.6,0,0-2.7.1-5.3,0-8,33.2,0,66.3,0,99.5,0M373.9,244.6c-2.7.9-4.2,4.1-3.5,6.7.7,2.9,4,4.7,6.8,3.9,2.9-.7,4.8-4.1,3.8-6.9-.8-2.9-4.3-4.8-7.2-3.7Z"/>
  </g>
</svg>