<?xml version="1.0" encoding="UTF-8"?>
<svg id="Layer_1" xmlns="http://www.w3.org/2000/svg" version="1.1" xmlns:xlink="http://www.w3.org/1999/xlink" viewBox="0 0 500 500">
  <!-- Generator: Adobe Illustrator 29.5.1, SVG Export Plug-In . SVG Version: 2.1.0 Build 141)  -->
  <defs>
    <style>
      .st0 {
        fill: #d94f46;
      }

      .st1 {
        fill: none;
      }

      .st2 {
        fill: #4a2673;
        fill-opacity: .4;
        stroke: #4a2673;
        stroke-miterlimit: 10;
        stroke-width: 8px;
      }

      .st3 {
        fill: #bfa55a;
      }

      .st4 {
        clip-path: url(#clippath);
      }
    </style>
    <clipPath id="clippath">
      <rect class="st1" x="114.3" y="152.7" width="271.1" height="194.1"/>
    </clipPath>
  </defs>
  <circle class="st2" cx="250" cy="250" r="240"/>
  <path class="st3" d="M277.8,241c-.5-.5-1-.8-1.6-1.1-.6-.3-1.3-.4-1.9-.4s-1.3.1-1.9.4c-.6.3-1.2.6-1.6,1.1s-.8,1-1.1,1.6-.4,1.3-.4,1.9.1,1.3.4,1.9c.3.6.6,1.2,1.1,1.6l22,22-22,22c-.5.5-.9,1-1.1,1.6s-.4,1.3-.4,1.9c0,.7.1,1.3.4,2s.6,1.2,1.1,1.7,1,.8,1.7,1.1,1.3.4,2,.4c.7,0,1.3-.1,1.9-.4.6-.3,1.2-.6,1.6-1.1l25.6-25.6c.5-.5.8-1,1.1-1.6.3-.6.4-1.3.4-1.9s-.1-1.3-.4-1.9c-.3-.6-.6-1.2-1.1-1.6l-25.6-25.5Z"/>
  <path class="st3" d="M229,241c-.5-.5-1-.8-1.6-1.1-.6-.3-1.3-.4-1.9-.4s-1.3.1-1.9.4c-.6.3-1.2.6-1.6,1.1l-25.6,25.6c-.5.5-.8,1-1.1,1.6-.3.6-.4,1.3-.4,1.9s.1,1.3.4,1.9c.3.6.6,1.2,1.1,1.6l25.6,25.6c.5.5,1,.8,1.6,1.1.6.2,1.3.4,1.9.4.7,0,1.3-.1,1.9-.4.6-.3,1.1-.6,1.6-1.1s.8-1,1.1-1.6.4-1.2.4-1.9c0-.7-.1-1.3-.4-1.9-.2-.6-.6-1.2-1.1-1.6l-22-22,22-22c.5-.5.8-1,1.1-1.6.3-.6.4-1.3.4-1.9s-.1-1.3-.4-1.9c-.3-.6-.6-1.2-1.1-1.6Z"/>
  <path class="st3" d="M261.4,228.4c-.6-.2-1.3-.2-2-.1-.7,0-1.3.3-1.9.6s-1.1.8-1.5,1.3c-.4.5-.7,1.1-.9,1.8l-20.5,73.7c-.2.7-.3,1.3-.2,2s.3,1.3.6,1.9c.3.6.8,1.1,1.3,1.5.5.4,1.1.7,1.8.9.6.2,1.3.2,2,.1.7,0,1.3-.3,1.9-.6.6-.3,1.1-.8,1.5-1.3s.7-1.1.9-1.8l20.5-73.7c.2-.6.2-1.3.1-2,0-.7-.3-1.3-.6-1.9-.3-.6-.8-1.1-1.3-1.5s-1.1-.7-1.8-.9Z"/>
  <g class="st4">
    <path class="st0" d="M363.7,152.7h-227.7c-1.4,0-2.8.1-4.2.4-1.4.3-2.7.7-4,1.2-1.3.5-2.5,1.2-3.7,2-1.2.8-2.3,1.7-3.3,2.7s-1.9,2.1-2.7,3.3-1.4,2.4-2,3.7c-.5,1.3-1,2.7-1.2,4s-.4,2.8-.4,4.2v150.9c0,1.4.1,2.8.4,4.2.3,1.4.7,2.7,1.2,4,.5,1.3,1.2,2.5,2,3.7.8,1.2,1.7,2.3,2.7,3.3s2.1,1.9,3.3,2.7c1.2.8,2.4,1.4,3.7,2,1.3.5,2.7,1,4,1.2,1.4.3,2.8.4,4.2.4h227.7c1.4,0,2.8-.1,4.2-.4s2.7-.7,4-1.2,2.5-1.2,3.7-2c1.2-.8,2.3-1.7,3.3-2.7,1-1,1.9-2.1,2.7-3.3.8-1.2,1.4-2.4,2-3.7.5-1.3,1-2.7,1.2-4,.3-1.4.4-2.8.4-4.2v-150.9c0-1.4-.1-2.8-.4-4.2s-.7-2.7-1.2-4c-.5-1.3-1.2-2.6-2-3.7s-1.7-2.3-2.7-3.3-2.1-1.9-3.3-2.7c-1.2-.8-2.4-1.5-3.7-2s-2.7-1-4-1.2c-1.4-.3-2.8-.4-4.2-.4ZM124.5,174.3c0-.8,0-1.5.2-2.2.1-.7.4-1.5.6-2.2.3-.7.6-1.4,1.1-2,.4-.6.9-1.2,1.4-1.8.5-.5,1.1-1,1.7-1.4s1.3-.8,2-1.1,1.4-.5,2.2-.7,1.5-.2,2.2-.2h227.7c.8,0,1.5,0,2.2.2s1.5.4,2.2.7,1.4.6,2,1.1,1.2.9,1.7,1.4c.5.5,1,1.1,1.4,1.8.4.6.8,1.3,1.1,2,.3.7.5,1.4.6,2.2.1.7.2,1.5.2,2.2v26.7H124.5v-26.7ZM363.7,336.7h-227.7c-.8,0-1.5,0-2.2-.2s-1.5-.4-2.1-.7-1.4-.6-2-1.1-1.2-.9-1.7-1.4-1-1.1-1.4-1.7-.8-1.3-1.1-2-.5-1.4-.7-2.1-.2-1.5-.2-2.2v-114.2h250.6v114.2c0,.8,0,1.5-.2,2.2s-.4,1.5-.7,2.1-.6,1.4-1.1,2-.9,1.2-1.4,1.7-1.1,1-1.7,1.4-1.3.8-2,1.1-1.4.5-2.1.7c-.7.1-1.5.2-2.2.2Z"/>
  </g>
  <path class="st3" d="M147,172.1c-.6,0-1.3,0-1.9.2-.6.1-1.3.3-1.8.6-.6.2-1.2.5-1.7.9-.5.4-1,.8-1.5,1.2s-.9,1-1.2,1.5c-.4.5-.7,1.1-.9,1.7-.2.6-.4,1.2-.6,1.8-.1.6-.2,1.3-.2,1.9s0,1.3.2,1.9c.1.6.3,1.2.6,1.8.2.6.5,1.2.9,1.7.4.5.8,1,1.2,1.5.5.5,1,.9,1.5,1.2.5.4,1.1.7,1.7.9.6.3,1.2.4,1.8.6.6.1,1.3.2,1.9.2s1.3,0,1.9-.2,1.2-.3,1.8-.6c.6-.2,1.2-.5,1.7-.9.5-.4,1-.8,1.5-1.2s.9-1,1.2-1.5c.4-.5.7-1.1.9-1.7.2-.6.4-1.2.6-1.8s.2-1.3.2-1.9,0-1.3-.2-1.9c-.1-.6-.3-1.2-.6-1.8-.2-.6-.5-1.2-.9-1.7-.4-.5-.8-1-1.2-1.5s-1-.9-1.5-1.2c-.5-.4-1.1-.7-1.7-.9-.6-.2-1.2-.4-1.8-.6-.6-.1-1.3-.2-1.9-.2ZM146.7,181.9c0-.2.1-.2.3-.2s.2,0,.3.2c0,.3-.5.3-.5,0Z"/>
  <path class="st3" d="M180.7,172.1c-.6,0-1.3,0-1.9.2-.6.1-1.2.3-1.8.6-.6.2-1.2.5-1.7.9s-1,.8-1.5,1.2-.9,1-1.2,1.5c-.4.5-.7,1.1-.9,1.7-.2.6-.4,1.2-.6,1.8-.1.6-.2,1.3-.2,1.9s0,1.3.2,1.9.3,1.2.6,1.8c.3.6.5,1.2.9,1.7.4.5.8,1,1.2,1.5s1,.9,1.5,1.2c.5.4,1.1.7,1.7.9.6.2,1.2.4,1.8.6.6.1,1.3.2,1.9.2s1.3,0,1.9-.2,1.2-.3,1.8-.6c.6-.2,1.2-.5,1.7-.9.5-.4,1-.8,1.5-1.2.5-.5.9-1,1.2-1.5.4-.5.7-1.1.9-1.7.3-.6.4-1.2.6-1.8.1-.6.2-1.3.2-1.9s0-1.3-.2-1.9c-.1-.6-.3-1.3-.6-1.8-.2-.6-.5-1.2-.9-1.7-.4-.5-.8-1-1.2-1.5s-1-.9-1.5-1.2c-.5-.4-1.1-.7-1.7-.9-.6-.3-1.2-.4-1.8-.6-.6-.1-1.3-.2-1.9-.2ZM180.5,181.9c0-.2.1-.2.3-.2s.2,0,.3.2c0,.3-.5.3-.5,0Z"/>
</svg>