<?xml version="1.0" encoding="UTF-8"?>
<svg id="Layer_1" xmlns="http://www.w3.org/2000/svg" version="1.1" xmlns:xlink="http://www.w3.org/1999/xlink" viewBox="0 0 500 500">
  <!-- Generator: Adobe Illustrator 29.5.1, SVG Export Plug-In . SVG Version: 2.1.0 Build 141)  -->
  <defs>
    <style>
      .st0 {
        fill: #d94f46;
      }

      .st1 {
        isolation: isolate;
      }

      .st2 {
        fill: #4a2673;
        opacity: .3;
      }

      .st3 {
        fill: #bfa55a;
      }
    </style>
  </defs>
  <g>
    <circle class="st2" cx="250" cy="250" r="240"/>
    <g class="st1">
      <image width="562" height="562" transform="translate(-31 -31)" xlink:href="6-1.png"/>
    </g>
  </g>
  <g>
    <circle class="st2" cx="250" cy="250" r="240"/>
    <g class="st1">
      <image width="562" height="562" transform="translate(-31 -31)" xlink:href="6-2.png"/>
    </g>
  </g>
  <g>
    <circle class="st2" cx="250" cy="250" r="240"/>
    <g class="st1">
      <image width="562" height="562" transform="translate(-31 -31)" xlink:href="6-3.png"/>
    </g>
  </g>
  <g>
    <circle class="st2" cx="250" cy="250" r="240"/>
    <g class="st1">
      <image width="562" height="562" transform="translate(-31 -31)" xlink:href="6-4.png"/>
    </g>
  </g>
  <path class="st0" d="M270.6,175.9c-.3-1.3-.7-2.6-1.2-3.9-.5-1.3-1.2-2.5-1.9-3.6-.8-1.1-1.6-2.2-2.6-3.1s-2-1.8-3.1-2.6c-1.1-.8-2.3-1.4-3.6-1.9-1.3-.5-2.6-.9-3.9-1.2-1.3-.3-2.7-.4-4-.4s-2.7.1-4,.4c-1.3.3-2.6.7-3.9,1.2-1.3.5-2.4,1.2-3.6,1.9-1.1.8-2.2,1.6-3.1,2.6-1,1-1.8,2-2.6,3.1-.8,1.1-1.4,2.3-1.9,3.6-.5,1.3-.9,2.6-1.2,3.9-.3,1.3-.4,2.7-.4,4s.1,2.7.4,4c.3,1.3.7,2.6,1.2,3.9.5,1.3,1.2,2.4,1.9,3.6.8,1.1,1.6,2.2,2.6,3.1,1,1,2,1.8,3.1,2.6,1.1.8,2.3,1.4,3.6,1.9s2.6.9,3.9,1.2c1.3.3,2.7.4,4,.4s2.7-.1,4-.4c1.3-.3,2.6-.7,3.9-1.2,1.3-.5,2.5-1.2,3.6-1.9,1.1-.8,2.2-1.6,3.1-2.6,1-1,1.8-2,2.6-3.1.8-1.1,1.4-2.3,1.9-3.6.5-1.3.9-2.6,1.2-3.9.3-1.3.4-2.7.4-4s-.1-2.7-.4-4ZM264.7,182.8c-.2.9-.5,1.9-.8,2.8-.4.9-.8,1.7-1.4,2.5-.5.8-1.1,1.5-1.8,2.2-.7.7-1.4,1.3-2.2,1.8-.8.5-1.7,1-2.5,1.4s-1.8.6-2.8.8c-.9.2-1.9.3-2.9.3s-1.9,0-2.9-.3c-.9-.2-1.9-.5-2.8-.8-.9-.4-1.7-.8-2.5-1.4-.8-.5-1.5-1.1-2.2-1.8-.7-.7-1.3-1.4-1.8-2.2-.5-.8-1-1.7-1.4-2.5-.4-.9-.6-1.8-.8-2.8-.2-.9-.3-1.9-.3-2.9,0-1,0-1.9.3-2.9.2-.9.5-1.9.8-2.8.4-.9.8-1.7,1.4-2.5.5-.8,1.1-1.5,1.8-2.2s1.4-1.3,2.2-1.8c.8-.5,1.7-1,2.5-1.4.9-.4,1.8-.7,2.8-.8.9-.2,1.9-.3,2.9-.3,1,0,1.9,0,2.9.3.9.2,1.9.5,2.8.8.9.4,1.7.8,2.5,1.4.8.5,1.5,1.1,2.2,1.8.7.7,1.3,1.4,1.8,2.2.5.8,1,1.6,1.4,2.5s.6,1.8.8,2.8c.2.9.3,1.9.3,2.9s0,1.9-.3,2.9Z"/>
  <path class="st0" d="M367.1,209.5c-.3-1-.8-1.9-1.3-2.8-.6-.9-1.3-1.6-2.1-2.3-.8-.7-1.7-1.2-2.7-1.6-1-.4-2-.7-3-.8-1-.1-2.1,0-3.1.2-1,.2-2,.6-2.9,1.1-.9.5-1.8,1.1-2.5,1.9l-24.4,24.4-4.2-4.2c.4-1.7.6-3.3.5-5,0-1.7-.3-3.4-.8-5-.5-1.6-1.1-3.2-2-4.7-.9-1.5-1.9-2.8-3.1-4-1.4-1.4-3-2.5-4.7-3.5-1.7-.9-3.6-1.6-5.5-2-1.9-.4-3.9-.5-5.8-.3-2,.2-3.8.6-5.7,1.3-.2,0-.5.2-.7.4-.2.2-.4.3-.5.5-.2.2-.3.4-.4.6-.1.2-.2.5-.2.7,0,.2,0,.5,0,.7,0,.2,0,.5.1.7,0,.2.2.5.3.7.1.2.3.4.5.6l9.9,9.9-1.1,4.1-4.1,1.1-9.9-9.9c-.2-.2-.4-.3-.6-.5-.2-.1-.4-.2-.7-.3-.2,0-.5-.1-.7-.1-.2,0-.5,0-.7,0-.2,0-.5.1-.7.2-.2.1-.4.2-.6.4-.2.2-.4.3-.5.5-.1.2-.3.4-.4.7-.7,1.8-1.2,3.7-1.3,5.7-.2,2,0,3.9.3,5.8.4,1.9,1.1,3.8,2,5.5.9,1.7,2.1,3.3,3.5,4.7,1.2,1.2,2.5,2.2,4,3.1,1.5.9,3,1.5,4.7,2s3.3.7,5,.8c1.7,0,3.4-.1,5.1-.5l4.2,4.2-16.1,16.1c-.5.5-.7,1-.8,1.6l-2.2,12.9c0,.2,0,.5,0,.7,0,.2,0,.5.1.7,0,.2.2.4.3.7.1.2.3.4.4.6.2.2.4.3.6.4.2.1.4.2.7.3.2,0,.5.1.7.1.2,0,.5,0,.7,0l12.9-2.2c.6-.1,1.2-.4,1.6-.8l16.1-16.1,17.8,17.8c.9.9,1.9,1.5,3,2,1.1.5,2.3.7,3.5.7h0c1.2,0,2.4-.2,3.5-.7,1.1-.5,2.1-1.1,3-2l2-2c.4-.4.8-.9,1.1-1.4.3-.5.6-1,.8-1.6.2-.6.4-1.1.5-1.7.1-.6.2-1.2.2-1.8s0-1.2-.2-1.8c-.1-.6-.3-1.2-.5-1.7-.2-.6-.5-1.1-.8-1.6-.3-.5-.7-1-1.1-1.4l-17.8-17.8,24.4-24.4c1-1,1.8-2.1,2.3-3.4.5-1.3.8-2.7.8-4.1,0-1.1-.2-2.1-.5-3.1ZM308.9,234.7c-.4-.4-.9-.7-1.4-.8-.6-.1-1.1-.1-1.7,0-1.2.4-2.5.7-3.8.8-1.3,0-2.6,0-3.9-.3-1.3-.3-2.5-.8-3.6-1.4-1.1-.6-2.2-1.4-3.1-2.4-1.3-1.4-2.4-2.9-3.1-4.7-.7-1.8-1-3.6-1-5.5l7.2,7.2c.4.4.8.6,1.4.8.5.1,1,.1,1.6,0l7.4-2c.5-.1,1-.4,1.4-.8.4-.4.6-.8.8-1.4l2-7.5c.1-.5.1-1,0-1.6-.1-.5-.4-1-.8-1.4l-7.2-7.2h.2c1.9,0,3.7.3,5.4,1.1,1.7.7,3.3,1.7,4.6,3,.9.9,1.7,1.9,2.4,3.1.6,1.1,1.1,2.3,1.4,3.6.3,1.3.4,2.6.3,3.9,0,1.3-.3,2.6-.7,3.8-.2.5-.2,1.1,0,1.6.1.6.4,1,.8,1.4l5.5,5.5-6.5,6.5-5.5-5.5ZM353.6,266.5c.3.3.5.6.7,1,.2.4.2.8.2,1.2s0,.8-.2,1.2c-.2.4-.4.7-.7,1l-2,2c-.6.6-1.3.9-2.2.9-.9,0-1.6-.3-2.2-.9l-17.8-17.8,6.5-6.5,17.8,17.8ZM305.4,270.6l-7.8,1.3,1.3-7.8,48.9-48.9,6.5,6.5-48.9,48.9ZM361.2,214.3c-.2.6-.6,1.1-1,1.5l-1.7,1.7-6.5-6.5,1.7-1.7c.4-.4.9-.8,1.5-1,.6-.2,1.1-.3,1.7-.3s1.2.1,1.7.3c.6.2,1.1.6,1.5,1h0c.4.4.8.9,1,1.5.2.6.3,1.1.3,1.8s-.1,1.2-.3,1.7Z"/>
  <path class="st3" d="M297.1,338.1l-3.3-26c-2.2-16.9-14.1-28.8-29.1-28.8h-28.7c-15,0-27,11.8-29.1,28.8l-3.3,26c-.5,3.6.5,7.2,2.7,9.7,1.1,1.2,2.3,2.1,3.8,2.7,1.5.6,3,.9,4.6.9h71.4c1.6,0,3.1-.3,4.6-.9,1.5-.6,2.7-1.6,3.8-2.7,2.2-2.5,3.2-6,2.7-9.6ZM289.8,343.8c-.5.5-1.1.9-1.7,1.2s-1.4.4-2.1.4h-71.4c-.7,0-1.4,0-2.1-.4s-1.2-.7-1.7-1.2c-1-1.2-1.5-3-1.3-4.9l3.3-26c1.5-11.3,9.3-23.5,23.1-23.5h28.7c11.8,0,21.4,9.7,23.1,23.5l3.3,26c.2,1.9-.2,3.7-1.3,4.9Z"/>
  <path class="st0" d="M287.6,174.6c0-.5-.2-.9-.4-1.4-.2-.4-.5-.9-.8-1.2-.3-.4-.7-.7-1.1-.9-.4-.3-.9-.5-1.3-.6l-4.4-1.2c-.3-.9-.7-1.7-1-2.5l2.2-3.9c.2-.4.4-.9.5-1.3.1-.5.2-1,.1-1.4,0-.5-.1-1-.3-1.4-.2-.5-.4-.9-.7-1.3-2.2-2.9-4.7-5.5-7.7-7.7-.4-.3-.8-.5-1.3-.7-.5-.2-.9-.3-1.4-.3-.5,0-1,0-1.4.1-.5.1-.9.3-1.3.5l-3.9,2.2c-.8-.4-1.6-.7-2.5-1l-1.2-4.4c-.1-.5-.3-.9-.6-1.3-.3-.4-.6-.8-.9-1.1-.4-.3-.8-.6-1.2-.8-.4-.2-.9-.3-1.4-.4-3.6-.5-7.2-.5-10.8,0-1,.1-1.8.5-2.6,1.2-.7.7-1.2,1.5-1.5,2.4l-1.2,4.4c-.9.3-1.7.7-2.5,1l-3.9-2.2c-.4-.2-.9-.4-1.3-.5-.5-.1-1-.2-1.4-.1-.5,0-1,.1-1.4.3-.5.2-.9.4-1.3.7-2.9,2.2-5.5,4.7-7.7,7.7-.3.4-.5.8-.7,1.3-.2.5-.3.9-.3,1.4,0,.5,0,1,.1,1.4.1.5.3.9.5,1.3l2.2,3.9c-.4.8-.7,1.7-1,2.5l-4.4,1.2c-.5.1-.9.3-1.3.6-.4.3-.8.6-1.1.9-.3.4-.6.8-.8,1.2-.2.4-.3.9-.4,1.4-.5,3.6-.5,7.2,0,10.8,0,.5.2.9.4,1.4.2.4.5.8.8,1.2.3.4.7.7,1.1.9.4.3.9.4,1.3.6l4.4,1.2c.3.8.6,1.6,1,2.5l-2.2,4c-.2.4-.4.9-.5,1.3-.1.5-.1.9-.1,1.4,0,.5.1.9.3,1.4.2.5.4.9.7,1.3,2.2,2.9,4.7,5.5,7.7,7.7.4.3.8.5,1.3.7.5.2.9.3,1.4.3.5,0,1,0,1.4-.1.5-.1.9-.3,1.3-.5l3.9-2.2c.8.4,1.7.7,2.5,1l1.2,4.4c.3,1,.8,1.8,1.5,2.4.7.7,1.6,1,2.6,1.2,3.6.5,7.2.5,10.9,0,.5,0,.9-.2,1.4-.4s.8-.5,1.2-.8c.4-.3.7-.7.9-1.1.3-.4.4-.9.6-1.3l1.2-4.4c.8-.3,1.6-.6,2.5-1l4,2.2c.4.2.9.4,1.3.5s1,.1,1.4.1,1-.1,1.4-.3c.5-.2.9-.4,1.3-.7,2.9-2.2,5.5-4.7,7.7-7.7.3-.4.5-.8.7-1.3.2-.5.3-.9.3-1.4s0-1-.1-1.4c-.1-.5-.3-.9-.5-1.3l-2.2-4c.4-.8.7-1.6,1-2.5l4.4-1.2h0c.5-.1.9-.3,1.3-.6.4-.3.8-.6,1.1-.9.3-.4.6-.8.8-1.2.2-.4.3-.9.4-1.4.5-3.6.5-7.2,0-10.8ZM281.7,183.8l-4.2,1.2c-.8.2-1.5.6-2.1,1.2-.6.6-1,1.2-1.3,2-.3,1-.7,1.9-1.2,2.8-.4.7-.5,1.5-.5,2.3,0,.8.2,1.6.7,2.3l2.2,3.8c-1.6,2.1-3.4,3.9-5.5,5.5l-3.8-2.2c-.7-.4-1.5-.6-2.3-.6-.8,0-1.6.1-2.3.5-.9.4-1.8.8-2.8,1.2-.8.3-1.5.7-2,1.3-.6.6-1,1.3-1.2,2.1l-1.2,4.2c-2.6.3-5.2.3-7.8,0l-1.2-4.2c-.2-.8-.6-1.5-1.2-2.1-.6-.6-1.2-1-2-1.3-1-.3-1.9-.7-2.8-1.2-.7-.4-1.5-.5-2.3-.5-.8,0-1.6.2-2.3.7l-3.8,2.2c-2.1-1.6-3.9-3.4-5.5-5.5l2.2-3.8c.4-.7.6-1.5.7-2.3,0-.8-.1-1.6-.5-2.3-.4-.9-.8-1.9-1.2-2.8-.3-.8-.7-1.5-1.3-2-.6-.6-1.3-1-2.1-1.2l-4.2-1.2c-.3-2.6-.3-5.2,0-7.8l4.2-1.2c.8-.2,1.5-.6,2.1-1.2s1-1.2,1.3-2c.3-1,.7-1.9,1.2-2.8.4-.7.5-1.5.5-2.3,0-.8-.2-1.6-.7-2.3l-2.2-3.8c1.6-2.1,3.4-3.9,5.5-5.5l3.8,2.2c.7.4,1.5.6,2.3.7.8,0,1.6-.2,2.3-.5.9-.4,1.8-.8,2.8-1.2.8-.3,1.4-.7,2-1.3.6-.6,1-1.3,1.2-2.1l1.2-4.2c2.6-.3,5.2-.3,7.8,0l1.2,4.2c.2.8.6,1.5,1.2,2.1.6.6,1.2,1,2,1.3,1,.3,1.9.7,2.8,1.2.7.4,1.5.5,2.3.5.8,0,1.6-.2,2.3-.7l3.8-2.2c2.1,1.6,3.9,3.4,5.5,5.5l-2.2,3.8c-.4.7-.6,1.5-.6,2.3,0,.8.1,1.6.5,2.3h0c.4.9.8,1.9,1.2,2.8.3.8.7,1.5,1.3,2,.6.6,1.3,1,2.1,1.2l4.2,1.2c.3,2.6.3,5.2,0,7.8Z"/>
  <path class="st0" d="M213.4,221.8c-.1-1.1-.3-2.2-.5-3.2-.2-1.1-.5-2.1-.8-3.2-.3-1-.7-2.1-1.1-3.1-.4-1-.9-2-1.4-3-.5-1-1.1-1.9-1.7-2.8s-1.3-1.8-2-2.6c-.7-.8-1.4-1.7-2.2-2.4-.8-.8-1.6-1.5-2.4-2.2-.8-.7-1.7-1.3-2.6-2-.9-.6-1.8-1.2-2.8-1.7-1-.5-2-1-3-1.4-1-.4-2-.8-3.1-1.1-1-.3-2.1-.6-3.2-.8-1.1-.2-2.2-.4-3.2-.5-1.1-.1-2.2-.2-3.3-.2s-2.2,0-3.3.2c-1.1.1-2.2.3-3.2.5-1.1.2-2.1.5-3.2.8-1,.3-2.1.7-3.1,1.1-1,.4-2,.9-3,1.4-1,.5-1.9,1.1-2.8,1.7s-1.8,1.3-2.6,2c-.8.7-1.7,1.4-2.4,2.2-.8.8-1.5,1.6-2.2,2.4-.7.8-1.3,1.7-2,2.6s-1.2,1.9-1.7,2.8c-.5,1-1,2-1.4,3-.4,1-.8,2-1.1,3.1-.3,1-.6,2.1-.8,3.2-.2,1.1-.4,2.2-.5,3.2-.1,1.1-.2,2.2-.2,3.3,0,12.5,6,19.7,11.3,26.1,4.6,5.5,8.5,10.2,8.5,17.8v4.4c0,1.2.3,2.3.8,3.4.5,1.1,1.3,1.9,2.3,2.6v3.2c0,3.6,3.2,6.5,7.2,6.5h6.7c4,0,7.2-2.9,7.2-6.5v-3.2c1-.7,1.7-1.6,2.3-2.6.6-1.1.8-2.2.8-3.4v-4.4c0-7.6,4-12.3,8.5-17.8,5.3-6.3,11.3-13.5,11.3-26.1,0-1.1,0-2.2-.2-3.3ZM184.6,282.5c-.3.3-.7.5-1.1.5h-6.7c-.4,0-.8-.1-1.1-.4v-1.9h8.9v1.8ZM187.7,273.3c0,.4-.1.7-.4.9-.3.3-.6.4-.9.4h-12.5c-.4,0-.7-.1-.9-.4-.3-.3-.4-.6-.4-.9v-1.3h15.2v1.3ZM197.6,247.3h0c-4.4,5.2-8.8,10.6-9.8,18.6h-4.8v-38.9l7.2-5.7c.3-.2.6-.6.8-.9.2-.3.3-.7.4-1.1,0-.4,0-.8,0-1.2s-.3-.7-.5-1c-.2-.3-.5-.6-.9-.8-.3-.2-.7-.3-1.1-.4-.4,0-.8,0-1.2,0-.4.1-.7.3-1,.5l-6.5,5.1-6.5-5.1c-.3-.2-.7-.4-1.1-.5-.4-.1-.8-.1-1.2,0-.4,0-.8.2-1.1.4-.3.2-.6.5-.9.8s-.4.7-.5,1c-.1.4-.1.8,0,1.2,0,.4.2.8.4,1.1.2.3.5.7.8.9l7.2,5.7v38.9h-4.7c-.9-8-5.4-13.4-9.8-18.6-5.1-6.1-9.9-11.9-9.9-22.2,0-.9,0-1.8.1-2.7,0-.9.2-1.8.4-2.7.2-.9.4-1.8.6-2.6.3-.9.6-1.7.9-2.5s.7-1.7,1.1-2.4c.4-.8.9-1.6,1.4-2.3.5-.8,1-1.5,1.6-2.2.6-.7,1.2-1.4,1.8-2,.6-.6,1.3-1.2,2-1.8.7-.6,1.4-1.1,2.2-1.6.8-.5,1.5-1,2.3-1.4.8-.4,1.6-.8,2.4-1.2.8-.3,1.7-.7,2.5-.9.9-.3,1.7-.5,2.6-.7.9-.2,1.8-.3,2.7-.4.9,0,1.8-.1,2.7-.1s1.8,0,2.7.1c.9,0,1.8.2,2.7.4.9.2,1.8.4,2.6.7.9.3,1.7.6,2.5.9.8.3,1.6.7,2.4,1.2.8.4,1.6.9,2.3,1.4.7.5,1.5,1,2.2,1.6.7.6,1.4,1.2,2,1.8.6.6,1.2,1.3,1.8,2,.6.7,1.1,1.4,1.6,2.2.5.8,1,1.5,1.4,2.3.4.8.8,1.6,1.1,2.4s.6,1.7.9,2.5c.3.9.5,1.7.6,2.6.2.9.3,1.8.4,2.7,0,.9.1,1.8.1,2.7,0,10.4-4.8,16.1-9.9,22.2Z"/>
  <path class="st3" d="M279.4,248.1c0-1-.2-1.9-.4-2.8-.2-.9-.4-1.9-.7-2.8-.3-.9-.6-1.8-1-2.7-.4-.9-.8-1.8-1.2-2.6-.5-.8-.9-1.7-1.5-2.5-.5-.8-1.1-1.6-1.7-2.3-.6-.7-1.3-1.5-1.9-2.1-.7-.7-1.4-1.3-2.1-1.9-.7-.6-1.5-1.2-2.3-1.7-.8-.5-1.6-1-2.5-1.5-.8-.5-1.7-.9-2.6-1.2-.9-.4-1.8-.7-2.7-1-.9-.3-1.8-.5-2.8-.7-.9-.2-1.9-.3-2.8-.4-1,0-1.9-.1-2.9-.1s-1.9,0-2.9.1c-1,0-1.9.2-2.8.4-.9.2-1.9.4-2.8.7-.9.3-1.8.6-2.7,1-.9.4-1.8.8-2.6,1.2-.8.5-1.7.9-2.5,1.5s-1.6,1.1-2.3,1.7c-.7.6-1.5,1.3-2.1,1.9-.7.7-1.3,1.4-1.9,2.1-.6.7-1.2,1.5-1.7,2.3-.5.8-1,1.6-1.5,2.5-.5.8-.9,1.7-1.2,2.6-.4.9-.7,1.8-1,2.7-.3.9-.5,1.8-.7,2.8-.2.9-.3,1.9-.4,2.8s-.1,1.9-.1,2.9,0,1.9.1,2.9c0,1,.2,1.9.4,2.8.2.9.4,1.9.7,2.8.3.9.6,1.8,1,2.7.4.9.8,1.8,1.2,2.6.5.8.9,1.7,1.5,2.5.5.8,1.1,1.6,1.7,2.3.6.7,1.2,1.5,1.9,2.1.7.7,1.4,1.3,2.1,1.9.7.6,1.5,1.2,2.3,1.7.8.5,1.6,1,2.5,1.5.8.5,1.7.9,2.6,1.2.9.4,1.8.7,2.7,1,.9.3,1.8.5,2.8.7.9.2,1.9.3,2.8.4,1,0,1.9.1,2.9.1s1.9,0,2.9-.1c1,0,1.9-.2,2.8-.4s1.9-.4,2.8-.7c.9-.3,1.8-.6,2.7-1,.9-.4,1.8-.8,2.6-1.2.8-.5,1.7-.9,2.5-1.5s1.6-1.1,2.3-1.7c.7-.6,1.5-1.3,2.1-1.9.7-.7,1.3-1.4,1.9-2.1.6-.7,1.2-1.5,1.7-2.3.5-.8,1-1.6,1.5-2.5.5-.8.9-1.7,1.2-2.6.4-.9.7-1.8,1-2.7.3-.9.5-1.8.7-2.8.2-.9.3-1.9.4-2.8s.1-1.9.1-2.9c0-1,0-1.9-.1-2.9ZM273.4,253.2c0,.8-.2,1.5-.3,2.3-.2.8-.3,1.5-.6,2.2-.2.7-.5,1.4-.8,2.2-.3.7-.6,1.4-1,2.1-.4.7-.8,1.3-1.2,2-.4.6-.9,1.2-1.4,1.8-.5.6-1,1.2-1.5,1.7s-1.1,1-1.7,1.5-1.2.9-1.8,1.4c-.6.4-1.3.8-2,1.2s-1.4.7-2.1,1c-.7.3-1.4.5-2.2.8-.7.2-1.5.4-2.2.6-.7.1-1.5.3-2.3.3-.8,0-1.5.1-2.3.1s-1.5,0-2.3-.1c-.8,0-1.5-.2-2.3-.3-.7-.2-1.5-.3-2.2-.6-.7-.2-1.4-.5-2.2-.8-.7-.3-1.4-.6-2.1-1s-1.3-.8-2-1.2c-.6-.4-1.2-.9-1.8-1.4-.6-.5-1.2-1-1.7-1.5-.5-.5-1.1-1.1-1.5-1.7-.5-.6-.9-1.2-1.4-1.8-.4-.6-.8-1.3-1.2-2s-.7-1.4-1-2.1c-.3-.7-.5-1.4-.8-2.2-.2-.7-.4-1.5-.6-2.2-.1-.8-.3-1.5-.3-2.3,0-.8-.1-1.5-.1-2.3,0-.8,0-1.5.1-2.3,0-.8.2-1.5.3-2.3.2-.8.3-1.5.6-2.2.2-.7.5-1.4.8-2.2.3-.7.6-1.4,1-2.1s.8-1.3,1.2-2c.4-.6.9-1.2,1.4-1.8s1-1.2,1.5-1.7,1.1-1.1,1.7-1.5c.6-.5,1.2-.9,1.8-1.4.6-.4,1.3-.8,2-1.2s1.4-.7,2.1-1c.7-.3,1.4-.5,2.2-.8.7-.2,1.5-.4,2.2-.6.7-.2,1.5-.3,2.3-.3.8,0,1.5-.1,2.3-.1s1.5,0,2.3.1c.8,0,1.5.2,2.3.3.8.1,1.5.3,2.2.6.7.2,1.4.5,2.2.8.7.3,1.4.6,2.1,1s1.3.8,2,1.2c.6.4,1.2.9,1.8,1.4.6.5,1.2,1,1.7,1.5.5.5,1.1,1.1,1.5,1.7.5.6.9,1.2,1.4,1.8.4.6.8,1.3,1.2,2s.7,1.4,1,2.1c.3.7.5,1.4.8,2.1.2.7.4,1.5.6,2.2.2.7.3,1.5.3,2.3,0,.8.1,1.5.1,2.3s0,1.5-.1,2.3Z"/>
</svg>