<?xml version="1.0" encoding="UTF-8"?>
<svg id="Layer_1" xmlns="http://www.w3.org/2000/svg" version="1.1" viewBox="0 0 122.9 92.5">
  <!-- Generator: Adobe Illustrator 29.6.1, SVG Export Plug-In . SVG Version: 2.1.1 Build 9)  -->
  <defs>
    <style>
      .st0 {
        fill: #bfa55a;
      }

      .st0, .st1, .st2 {
        fill-rule: evenodd;
      }

      .st1, .st3 {
        fill: #ece9e2;
      }

      .st2 {
        fill: #d94f46;
      }
    </style>
  </defs>
  <path class="st2" d="M3.1,86.3h11.5c-.4-.4-.6-.9-.6-1.5v-47c0-1.2,1-2.2,2.1-2.2h90.1c1.2,0,2.1,1,2.2,2.2v47c0,.6-.2,1.1-.6,1.5h12c1.7,0,3.1,1.4,3.1,3.1,0,1.7-1.4,3.1-3.1,3.1H3.1c-1.7,0-3.1-1.4-3.1-3.1,0-1.7,1.4-3.1,3.1-3.1Z"/>
  <path class="st2" d="M88.1,22h-6.1v9.6h-4.3v-11.7c0-1.2.9-2.1,2.1-2.1,0,0,0,0,0,0h8.3c1.2-3.2,4.9-4.9,8.1-3.7,3.2,1.2,4.9,4.9,3.7,8.1-1.2,3.2-4.9,4.9-8.1,3.7-1.7-.7-3.1-2.1-3.7-3.8h0Z"/>
  <path class="st2" d="M44,23.5v8.1h-4.3v-5.9h-4.9c-1.2,3.3-4.8,4.9-8,3.8-3.3-1.2-4.9-4.8-3.8-8,1.2-3.3,4.8-4.9,8-3.8,1.7.6,3.1,2,3.8,3.8h7.1c.6,0,1.1.2,1.5.6.4.4.6,1,.6,1.5Z"/>
  <path class="st2" d="M33.1,0c-3.5,0-6.3,2.8-6.3,6.3,0,3.5,2.8,6.3,6.3,6.3,2.5,0,4.7-1.5,5.7-3.7h12.6v22.7h4.3V6.7c0-1.2-.9-2.1-2.1-2.1,0,0,0,0,0,0h-14.4C38.3,1.9,35.9,0,33.1,0h0Z"/>
  <path class="st2" d="M67.8.1c-3.5,0-6.3,2.8-6.3,6.3,0,2.7,1.7,5,4.2,5.9v19.3h4.3V12.3c3.3-1.2,5-4.8,3.8-8-.9-2.5-3.3-4.2-5.9-4.2Z"/>
  <rect class="st3" x="17.6" y="39" width="87.4" height="45.2"/>
  <path class="st0" d="M51.1,48c0-1.9.5-3.8,1.6-5.4h17.5c1,1.6,1.6,3.5,1.6,5.4,0,5.7-4.6,10.3-10.3,10.3-5.7,0-10.3-4.6-10.3-10.3Z"/>
  <path class="st0" d="M91.2,48.4v2.2c0,2-1.6,3.7-3.7,3.7h-3.8c-.5,2.1-1.2,4.1-2.3,6l2.5,2.5c1.4,1.4,1.4,3.8,0,5.2l-3,3.1c-1.4,1.4-3.8,1.4-5.2,0l-2.3-2.3c-1.9,1.2-4,2.1-6.2,2.7v3.1c0,2-1.7,3.7-3.7,3.7h-4.3c-2,0-3.7-1.7-3.7-3.7v-3.1c-2.2-.6-4.3-1.5-6.3-2.7l-2.2,2.2c-1.4,1.4-3.8,1.4-5.2,0l-3.1-3.1c-1.4-1.4-1.4-3.8,0-5.2l2.4-2.4c-1.1-1.9-1.8-4-2.3-6.1h-3.6c-2,0-3.7-1.7-3.7-3.7v-4.3c0-2,1.5-3.6,3.5-3.7h12.3c-.6,1.6-.9,3.3-.9,5.1v1.5c0,8.2,6.6,14.8,14.8,14.8s14.8-6.6,14.8-14.8v-1.5c0-1.7-.3-3.4-.9-5.1h12.5c2,0,3.5,1.7,3.5,3.7v2.2h0Z"/>
  <path class="st1" d="M57.9,87.8h7.1c.6,0,1.2.5,1.2,1.2h0c0,.7-.5,1.2-1.2,1.2,0,0,0,0,0,0h-7.1c-.7,0-1.2-.6-1.2-1.2,0,0,0,0,0,0h0c0-.7.5-1.2,1.2-1.2h0Z"/>
</svg>