<?xml version="1.0" encoding="UTF-8"?>
<svg id="Layer_1" xmlns="http://www.w3.org/2000/svg" version="1.1" viewBox="0 0 122.9 122.4">
  <!-- Generator: Adobe Illustrator 29.6.1, SVG Export Plug-In . SVG Version: 2.1.1 Build 9)  -->
  <defs>
    <style>
      .st0 {
        fill: #bfa55a;
      }

      .st0, .st1, .st2 {
        fill-rule: evenodd;
      }

      .st1 {
        fill: #ece9e2;
      }

      .st2 {
        fill: #d94f46;
      }
    </style>
  </defs>
  <path class="st0" d="M89.8,87.5l-9.6,24.5-35.3-.5-9.8-24c8.4-15,16.9-33.3,21.3-49.3l4.7.5-.2,43.1c-2.3.9-3.5,3.5-2.6,5.8s3.5,3.5,5.8,2.6c2.3-.9,3.5-3.5,2.6-5.8-.5-1.3-1.6-2.3-3-2.7v-42.7l5.5-.2c3.9,16.1,12.3,34.4,20.6,48.8h0Z"/>
  <path class="st2" d="M53.4,0h18.4c1.4,0,2.5,1.1,2.5,2.5h0v6h29.1c.5-1.4,1.3-2.7,2.4-3.8h0c3.9-3.9,10.2-3.9,14.1,0h0c3.9,3.9,3.9,10.2,0,14.1h0c-3.9,3.9-10.2,3.9-14.1,0h0l-.2-.2c-1-1-1.7-2.2-2.2-3.6h-15c4.8,2.8,9.2,6.4,13,10.5,7.5,8.3,12.5,18.6,14.3,29.6h4c1.7,0,3,1.3,3,3v13.5c0,1.7-1.3,3-3,3h-13.3c-1.7,0-3-1.3-3-3v-13.5c0-1.7,1.3-3,3-3h3.1c-1.8-9.5-6.2-18.3-12.6-25.4-6-6.7-13.9-11.5-22.6-13.9v5.3c0,1.4-1.1,2.5-2.5,2.5h-18.4c-1.3,0-2.4-1.1-2.4-2.5v-5.3c-8.9,2.5-16.9,7.5-23,14.5-6.2,7.1-10.4,15.6-12.2,24.9h3c1.7,0,3,1.3,3,3v13.5c0,1.7-1.3,3-3,3H5.5c-1.7,0-3-1.3-3-3v-13.5c0-1.7,1.3-3,3-3h4.1c1.8-10.7,6.6-20.7,13.8-28.9,3.9-4.4,8.5-8.2,13.6-11.2h-17.5c-.5,1.4-1.3,2.7-2.4,3.7h0c-3.9,3.9-10.2,3.9-14.1,0h0C-.9,14.9-.9,8.6,3,4.7h0c3.9-3.9,10.2-3.9,14.1,0h0c1.1,1.1,1.9,2.3,2.4,3.8h31.5V2.5c0-1.4,1.1-2.5,2.4-2.5Z"/>
  <polygon class="st1" points="79.4 122.4 45.2 122.4 45.2 115.6 79.4 115.6 79.4 122.4 79.4 122.4"/>
</svg>