<?xml version="1.0" encoding="UTF-8"?>
<svg id="Layer_1" xmlns="http://www.w3.org/2000/svg" version="1.1" viewBox="0 0 512 389.9">
  <!-- Generator: Adobe Illustrator 29.6.1, SVG Export Plug-In . SVG Version: 2.1.1 Build 9)  -->
  <defs>
    <style>
      .st0, .st1 {
        fill: #d94f46;
      }

      .st2 {
        fill: #bfa55a;
      }

      .st2, .st1 {
        fill-rule: evenodd;
      }

      .st3 {
        fill: #ece9e2;
      }
    </style>
  </defs>
  <path class="st1" d="M256,0C148.3,0,61,87.3,61,195s87.3,195,195,195,195-87.3,195-195S363.7,0,256,0ZM227.6,22.4l2.8-.4c-12,10.7-22.8,21.5-32.6,32.2-10.5,11.5-19.8,23-27.8,34.5h-53.2c26.5-34.9,67.6-59.6,110.8-66.3ZM227.1,367.6c-43.2-7.1-83.6-31.2-110.1-66.1h50.2c17.2,24.8,38.9,46.8,61.8,66.4l-1.9-.3ZM246.2,357c-20-16.5-39-35-55-55.5h55v55.5ZM246.2,88.7h-52.2c7-9,14.8-18,23.4-27.1,8.7-9.2,18.3-18.4,28.8-27.6v54.7ZM281.8,22.1c44.9,6.8,85.9,30.4,113.4,66.6h-53.2c-17-24.6-38-46.7-60.2-66.6h0ZM265.8,34h0c10.5,9.4,20,18.4,28.7,27.6,8.7,9.1,16.5,18.1,23.4,27.1h-52.1v-54.6s0,0,0,0h0ZM265.8,301.5h55c-16,20.5-35,38.9-55,55.5v-55.5ZM285,367.6l-2,.3c23-19.6,44.7-41.6,61.9-66.4h50.2c-26.4,34.8-67,59.1-110.1,66.1Z"/>
  <path class="st0" d="M40.2,90.4h431.6c22.1,0,40.2,18.1,40.2,40.2v129c0,22-18.2,40.2-40.2,40.2H40.2c-22.1,0-40.2-18.1-40.2-40.2v-129c0-22.2,18.1-40.2,40.2-40.2Z"/>
  <path class="st2" d="M40.2,108.3h431.6c12.3,0,22.3,10.1,22.3,22.3v129c0,12.2-10.1,22.3-22.3,22.3H40.2c-12.2,0-22.3-10-22.3-22.3v-129c0-12.3,10.1-22.3,22.3-22.3Z"/>
  <path class="st3" d="M147.4,148.5h31.2l-14.6,93.3h-39l-6.9-34.3h-1.8l-6.7,34.3h-39l-14.6-93.3h31.2l7,52.1h.9l10.8-52.1h22.8l10.6,52.1h.9l7.2-52.1h0ZM246.9,206.6h-29.9v12.9h36.6v22.3h-66.4v-93.3h65.7l-3.7,22.3h-32.1v14.1h29.9v21.6h-.1ZM267.4,241.8v-93.3h48.4c9,0,15.4,1.8,19.2,5.2s5.8,8.6,5.8,15.2-1.2,11.8-3.7,15.4c-2.4,3.6-5.7,6-9.8,7.1v.9c12,2.1,18.1,10.3,18.1,24.6s-2,13.5-6,18-10.1,6.8-18.4,6.8h-53.6ZM308.9,204.6h-13.2v15.2h13.1c4.2,0,6.3-2.5,6.3-7.6s-2-7.6-6.1-7.6h0ZM306.7,168.9h-11v13.9h10.8c3.8,0,5.7-2.3,5.7-6.9s-1.8-6.9-5.5-6.9h0ZM423.9,181.3v-11.3c-3-.5-7.8-.7-14.5-.7s-15,1-24.9,3.1l-3.9-20.5c12.1-3.8,23.9-5.7,35.2-5.7s16.8.6,21.2,1.8c4.4,1.2,7.6,2.6,9.7,4.3,4.6,3.9,6.9,9.8,6.9,17.6s-4.1,17.1-12.4,21.5v.8c9.9,4.1,14.8,11.5,14.8,22.2s-.8,9.8-2.5,13.5c-1.6,3.7-3.7,6.6-6.2,8.7s-5.8,3.7-9.9,4.9c-6.1,1.7-14.6,2.5-25.6,2.5s-22-1.3-33.1-3.9l4.2-23.1c9.5,2.3,17.5,3.4,24,3.4s12.2-.3,16.9-.9v-11.1l-25.7-2.5v-21.7l25.7-3h0Z"/>
</svg>