<?xml version="1.0" encoding="UTF-8"?>
<svg id="Layer_1" xmlns="http://www.w3.org/2000/svg" version="1.1" viewBox="0 0 122.9 99.6">
  <!-- Generator: Adobe Illustrator 29.6.1, SVG Export Plug-In . SVG Version: 2.1.1 Build 9)  -->
  <defs>
    <style>
      .st0 {
        fill: #bfa55a;
      }

      .st0, .st1, .st2, .st3, .st4 {
        fill-rule: evenodd;
      }

      .st1 {
        fill: #ece9e2;
      }

      .st2, .st5 {
        fill: #bfa55a;
      }

      .st3 {
        fill: #d94f46;
      }

      .st4 {
        fill: #ece9e2;
      }
    </style>
  </defs>
  <path class="st3" d="M6.1,0h86.8c1.6,0,3.1.6,4.3,1.8h0c1.1,1.1,1.8,2.7,1.8,4.3v27.4c-1.3-.9-2.6-1.6-4.1-2.2h0c-.4-.2-.9-.4-1.4-.5v-12.2H5.5v70.7c0,.2,0,.3.2.4h0c0,0,.3.2.4.2h76.3v.3c0,.9.2,1.7.5,2.6s.6,1.8,1.1,2.6H6.1c-1.6,0-3.1-.6-4.3-1.8h0C.7,92.5,0,90.9,0,89.3V6.1C0,4.5.6,3,1.8,1.8l.2-.2c1.1-1,2.5-1.6,4.1-1.6Z"/>
  <path class="st1" d="M16.3,23.6h66.2c2.2,0,4,1.8,4,4v2c-2.6,0-5.2.5-7.7,1.4l-.5.2c-8,3.3-13.2,11.2-13.3,19.8,0,1.8.2,3.6.7,5.4H16.3c-2.2,0-4-1.8-4-4v-24.8c0-2.2,1.8-4,4-4h0Z"/>
  <path class="st1" d="M73.7,6.3c2,0,3.6,1.6,3.6,3.6s-1.6,3.6-3.6,3.6-3.6-1.6-3.6-3.6,1.6-3.6,3.6-3.6h0Z"/>
  <path class="st1" d="M62.7,6.3c2,0,3.6,1.6,3.6,3.6s-1.6,3.6-3.6,3.6-3.6-1.6-3.6-3.6,1.6-3.6,3.6-3.6h0Z"/>
  <path class="st1" d="M84.6,6.3c2,0,3.6,1.6,3.6,3.6s-1.6,3.6-3.6,3.6-3.6-1.6-3.6-3.6,1.6-3.6,3.6-3.6h0Z"/>
  <rect class="st5" x="14.6" y="63.9" width="52.9" height="4.2"/>
  <path class="st2" d="M15.5,79c-1.2,0-2.1-.9-2.1-2.1s.9-2.1,2.1-2.1h38.5c1.2,0,2.1.9,2.1,2.1s-.9,2.1-2.1,2.1H15.5Z"/>
  <path class="st3" d="M111.3,99.4c-.5.2-1,.3-1.6,0-.6,0-1-.5-1.3-1l-7-12-5.3,6c-.6.8-1.5,1.4-2.4,1.8-.6.2-1.2.3-1.8.2-.7,0-1.2-.5-1.6-1.1s-.6-1.3-.6-2l-3-38.5h0c0-.6.2-1.1.7-1.4,0,0,.2,0,.3-.2h.7c.2,0,.4,0,.6.2h.2c0,0,31.8,21.9,31.8,21.9.6.4,1.1.9,1.4,1.5s.4,1.3.2,1.9c-.2.6-.6,1.1-1.1,1.5-.8.6-1.7,1-2.7,1.2h0l-7.7,1.6,6.9,12c.3.5.4,1.1.2,1.7,0,.6-.5,1-1,1.3h0l-5.8,3.3h0,0Z"/>
  <path class="st4" d="M86.3,43.4c1.9,0,3.7.8,5,2.1,0,0,.3.3.4.4h-.2c-.4-.2-.8-.3-1.2-.3h-.4c-.6,0-1.2,0-1.8,0h-.3c-1.8-.6-3.8,0-5.2,1.3h0c-1,1-1.5,2.3-1.5,3.7v1.6c0,.4,0,.9,0,1.3v1.9c-2.4-2.8-2.2-7,.4-9.7h0c1.3-1.3,3.1-2.1,5-2.1h0v-.2Z"/>
  <path class="st4" d="M86.3,35.7c8.2,0,14.8,6.6,14.8,14.8h0v1.4l-2.2-1.5c0-6.9-5.7-12.5-12.6-12.4-6.9,0-12.5,5.7-12.4,12.6,0,5,3.1,9.6,7.7,11.5l.2,2.5c-7.7-2.5-12-10.9-9.4-18.6,2-6.1,7.7-10.2,14-10.2h0Z"/>
  <polygon class="st0" points="25.4 47.4 21 47.4 24.4 32.6 30.7 32.6 34.1 47.4 29.8 47.4 29.3 45 25.9 45 25.4 47.3 25.4 47.4"/>
  <polygon class="st1" points="27.1 37.1 26.6 41.3 28.5 41.3 28.1 37.1 27.1 37.1"/>
  <path class="st0" d="M36.1,47.4v-14.8h5.8c2.3,0,3.9.6,4.8,1.7s1.3,3,1.3,5.7-.4,4.5-1.3,5.7-2.5,1.7-4.8,1.7c0,0-5.8,0-5.8,0Z"/>
  <path class="st1" d="M41.9,36.4h-1.7v7.2h1.7c.4,0,.8,0,1.2-.2.2-.2.4-.5.4-1v-4.7c0-.5,0-.9-.4-1-.4-.2-.8-.3-1.2-.2h0Z"/>
  <path class="st0" d="M50,47.1l.6-3.9c1.1.3,2.3.5,3.4.5s1.6,0,2.5,0v-1.2l-1.9-.2c-1.3,0-2.5-.5-3.5-1.4-.7-1-1-2.1-1-3.3,0-2,.4-3.4,1.2-4.2,1.1-.9,2.5-1.3,3.9-1.1,1.7,0,3.4.2,5,.6l-.5,3.8c-1-.2-2-.3-3.1-.3s-1.3,0-2,0v1.2l1.5.2c1.4,0,2.7.5,3.7,1.5.7.9,1.1,2.1,1,3.2,0,.9,0,1.7-.3,2.6-.2.6-.5,1.1-.8,1.6-.4.4-.9.7-1.4.8-.5.2-1,.3-1.6.3h-1.8c-1.7,0-3.4-.2-5-.6h0Z"/>
</svg>