<svg xmlns="http://www.w3.org/2000/svg" xmlns:xlink="http://www.w3.org/1999/xlink" width="500" zoomAndPan="magnify" viewBox="0 0 375 374.999991" height="500" preserveAspectRatio="xMidYMid meet" version="1.0"><defs><g/><clipPath id="737e7e8408"><path d="M 0 29.433594 L 60 29.433594 L 60 345.933594 L 0 345.933594 Z M 0 29.433594 " clip-rule="nonzero"/></clipPath><clipPath id="aa75a26749"><path d="M 315 29.433594 L 374.933594 29.433594 L 374.933594 345.933594 L 315 345.933594 Z M 315 29.433594 " clip-rule="nonzero"/></clipPath></defs><g fill="#ffffff" fill-opacity="1"><g transform="translate(37.359936, 237.465663)"><g><path d="M 94.515625 -42.84375 L 179.421875 -42.84375 L 179.421875 0 L 6.234375 0 L 6.234375 -18.4375 L 89.0625 -135.796875 L 12.46875 -135.796875 L 12.46875 -178.640625 L 177.34375 -178.640625 L 177.34375 -160.203125 Z M 94.515625 -42.84375 "/></g></g></g><g fill="#ffffff" fill-opacity="1"><g transform="translate(139.899396, 322.42774)"><g><path d="M 98.515625 -182.203125 C 162.253906 -182.203125 194.125 -151.832031 194.125 -91.09375 C 194.125 -30.363281 162.253906 0 98.515625 0 L 19.59375 0 L 19.59375 -182.203125 Z M 78.125 -43.703125 L 97.453125 -43.703125 C 121.992188 -43.703125 134.265625 -56.851562 134.265625 -83.15625 L 134.265625 -99.046875 C 134.265625 -125.347656 121.992188 -138.5 97.453125 -138.5 L 78.125 -138.5 Z M 78.125 -43.703125 "/></g></g></g><g fill="#2a2e33" fill-opacity="1"><g transform="translate(219.039218, 182.339899)"><g><path d="M 11.71875 5.734375 C 11.71875 7.640625 11.222656 9.09375 10.234375 10.09375 C 9.253906 11.09375 7.796875 11.59375 5.859375 11.59375 C 3.921875 11.59375 2.457031 11.09375 1.46875 10.09375 C 0.488281 9.09375 0 7.640625 0 5.734375 L 0 1.515625 L 11.71875 1.515625 Z M 1.953125 5.59375 C 1.953125 6.800781 2.257812 7.703125 2.875 8.296875 C 3.488281 8.898438 4.484375 9.203125 5.859375 9.203125 C 7.234375 9.203125 8.226562 8.898438 8.84375 8.296875 C 9.457031 7.703125 9.765625 6.800781 9.765625 5.59375 L 9.765625 3.84375 L 1.953125 3.84375 Z M 1.953125 5.59375 "/></g></g></g><g fill="#2a2e33" fill-opacity="1"><g transform="translate(219.039218, 199.867828)"><g><path d="M 0 3.84375 L 0 1.515625 L 11.71875 1.515625 L 11.71875 3.84375 Z M 0 3.84375 "/></g></g></g><g fill="#2a2e33" fill-opacity="1"><g transform="translate(219.039218, 210.242055)"><g><path d="M -0.171875 5.6875 C -0.171875 4.707031 0.0507812 3.859375 0.5 3.140625 C 0.945312 2.429688 1.617188 1.882812 2.515625 1.5 C 3.421875 1.113281 4.535156 0.921875 5.859375 0.921875 C 7.191406 0.921875 8.304688 1.148438 9.203125 1.609375 C 10.109375 2.078125 10.78125 2.722656 11.21875 3.546875 C 11.65625 4.378906 11.875 5.335938 11.875 6.421875 C 11.875 7.546875 11.664062 8.503906 11.25 9.296875 C 10.832031 10.085938 10.210938 10.640625 9.390625 10.953125 L 8.375 9.265625 L 8.375 9.0625 C 8.90625 8.820312 9.289062 8.484375 9.53125 8.046875 C 9.769531 7.617188 9.890625 7.078125 9.890625 6.421875 C 9.890625 5.410156 9.566406 4.640625 8.921875 4.109375 C 8.285156 3.578125 7.265625 3.3125 5.859375 3.3125 C 4.441406 3.3125 3.410156 3.5625 2.765625 4.0625 C 2.128906 4.5625 1.8125 5.296875 1.8125 6.265625 C 1.8125 7.109375 2 7.726562 2.375 8.125 C 2.757812 8.53125 3.328125 8.734375 4.078125 8.734375 L 4.578125 8.734375 L 4.578125 5.96875 L 6.46875 5.96875 L 6.46875 11.03125 L 0 11.03125 L 0 8.828125 L 1.5625 8.828125 L 1.59375 8.65625 C 1.03125 8.414062 0.59375 8.050781 0.28125 7.5625 C -0.0195312 7.070312 -0.171875 6.445312 -0.171875 5.6875 Z M -0.171875 5.6875 "/></g></g></g><g fill="#2a2e33" fill-opacity="1"><g transform="translate(219.039218, 227.465569)"><g><path d="M 0 3.84375 L 0 1.515625 L 11.71875 1.515625 L 11.71875 3.84375 Z M 0 3.84375 "/></g></g></g><g fill="#2a2e33" fill-opacity="1"><g transform="translate(219.039218, 237.839798)"><g><path d="M 11.71875 9.390625 L 9.765625 9.390625 L 9.765625 6.015625 L 0 6.015625 L 0 3.703125 L 9.765625 3.703125 L 9.765625 0.328125 L 11.71875 0.328125 Z M 11.71875 9.390625 "/></g></g></g><g fill="#2a2e33" fill-opacity="1"><g transform="translate(219.039218, 252.555915)"><g><path d="M 0 11.234375 L 0 8.796875 L 2.703125 7.921875 L 2.703125 3.4375 L 0 2.5625 L 0 0.171875 L 11.71875 4.21875 L 11.71875 7.1875 Z M 9.265625 5.5625 L 4.640625 4.0625 L 4.640625 7.28125 L 9.265625 5.765625 Z M 9.265625 5.5625 "/></g></g></g><g fill="#2a2e33" fill-opacity="1"><g transform="translate(219.039218, 268.978346)"><g><path d="M 11.71875 3.84375 L 1.9375 3.84375 L 1.9375 9.09375 L 0 9.09375 L 0 1.515625 L 11.71875 1.515625 Z M 11.71875 3.84375 "/></g></g></g><g fill="#2a2e33" fill-opacity="1"><g transform="translate(29.539227, 237.914648)"><g><path d="M 39.890625 -43.71875 L 18.234375 -8.75 L 38.46875 -8.75 L 38.46875 0 L 0.84375 0 L 22.46875 -34.96875 L 3.921875 -34.96875 L 3.921875 -43.71875 Z M 39.890625 -43.71875 "/></g></g></g><g fill="#2a2e33" fill-opacity="1"><g transform="translate(63.869334, 237.914648)"><g><path d="M 28.1875 -43.71875 L 28.1875 -34.96875 L 13.140625 -34.96875 L 13.140625 -26.28125 L 27.546875 -26.28125 L 27.546875 -17.53125 L 13.140625 -17.53125 L 13.140625 -8.75 L 28.1875 -8.75 L 28.1875 0 L 3.171875 0 L 3.171875 -43.71875 Z M 28.1875 -43.71875 "/></g></g></g><g fill="#2a2e33" fill-opacity="1"><g transform="translate(88.186137, 237.914648)"><g><path d="M -1.59375 -43.71875 L 10.390625 -43.71875 L 19.5 -29.71875 L 28.609375 -43.71875 L 40.59375 -43.71875 L 24.484375 -19.609375 L 24.484375 0 L 14.515625 0 L 14.515625 -19.609375 Z M -1.59375 -43.71875 "/></g></g></g><g fill="#2a2e33" fill-opacity="1"><g transform="translate(120.767881, 237.914648)"><g><path d="M 25.375 -43.71875 L 43.015625 0 L 32.328125 0 L 29.09375 -8.75 L 12.453125 -8.75 L 9.21875 0 L -1.484375 0 L 16.15625 -43.71875 Z M 25.703125 -17.484375 L 20.828125 -30.203125 L 20.71875 -30.203125 L 15.84375 -17.484375 Z M 25.703125 -17.484375 "/></g></g></g><g fill="#2a2e33" fill-opacity="1"><g transform="translate(155.892692, 237.914648)"><g><path d="M 3.171875 -43.71875 L 15.84375 -43.71875 C 21.914062 -43.71875 27.109375 -41.640625 31.421875 -37.484375 C 35.734375 -33.335938 37.890625 -28.132812 37.890625 -21.875 C 37.890625 -15.59375 35.742188 -10.375 31.453125 -6.21875 C 27.160156 -2.070312 21.957031 0 15.84375 0 L 3.171875 0 Z M 13.140625 -8.90625 L 14.671875 -8.90625 C 18.316406 -8.90625 21.296875 -10.128906 23.609375 -12.578125 C 25.921875 -15.035156 27.09375 -18.117188 27.125 -21.828125 C 27.125 -25.535156 25.96875 -28.625 23.65625 -31.09375 C 21.34375 -33.570312 18.347656 -34.8125 14.671875 -34.8125 L 13.140625 -34.8125 Z M 13.140625 -8.90625 "/></g></g></g><g clip-path="url(#737e7e8408)"><path fill="#ff5e3a" d="M 57.21875 345.578125 C 35.640625 345.578125 18.070312 328.007812 18.070312 306.429688 L 18.070312 215.910156 C 18.070312 206.289062 13.269531 197.410156 5.214844 192.144531 L 1.429688 189.667969 C 0.707031 189.183594 0.257812 188.375 0.257812 187.515625 C 0.257812 186.636719 0.6875 185.828125 1.429688 185.347656 L 5.265625 182.835938 C 13.285156 177.570312 18.085938 168.6875 18.085938 159.105469 L 18.085938 68.585938 C 18.070312 47.003906 35.640625 29.433594 57.21875 29.433594 C 58.648438 29.433594 59.800781 30.589844 59.800781 32.015625 C 59.800781 33.445312 58.648438 34.597656 57.21875 34.597656 C 38.480469 34.597656 23.230469 49.84375 23.230469 68.585938 L 23.230469 159.085938 C 23.230469 170.425781 17.570312 180.925781 8.089844 187.136719 L 7.554688 187.496094 L 8.035156 187.808594 C 17.554688 194.019531 23.230469 204.535156 23.230469 215.890625 L 23.230469 306.410156 C 23.230469 325.152344 38.480469 340.398438 57.21875 340.398438 C 58.648438 340.398438 59.800781 341.550781 59.800781 342.980469 C 59.800781 344.40625 58.648438 345.558594 57.21875 345.558594 Z M 57.21875 345.578125 " fill-opacity="1" fill-rule="nonzero"/></g><g clip-path="url(#aa75a26749)"><path fill="#ff5e3a" d="M 317.773438 345.578125 C 339.355469 345.578125 356.925781 328.007812 356.925781 306.429688 L 356.925781 215.910156 C 356.925781 206.289062 361.726562 197.410156 369.78125 192.144531 L 373.566406 189.667969 C 374.289062 189.183594 374.734375 188.375 374.734375 187.515625 C 374.734375 186.636719 374.304688 185.828125 373.566406 185.347656 L 369.726562 182.835938 C 361.707031 177.570312 356.90625 168.6875 356.90625 159.105469 L 356.90625 68.585938 C 356.925781 47.003906 339.355469 29.433594 317.773438 29.433594 C 316.347656 29.433594 315.195312 30.589844 315.195312 32.015625 C 315.195312 33.445312 316.347656 34.597656 317.773438 34.597656 C 336.515625 34.597656 351.761719 49.84375 351.761719 68.585938 L 351.761719 159.085938 C 351.761719 170.425781 357.425781 180.925781 366.90625 187.136719 L 367.4375 187.496094 L 366.957031 187.808594 C 357.441406 194.019531 351.761719 204.535156 351.761719 215.890625 L 351.761719 306.410156 C 351.761719 325.152344 336.515625 340.398438 317.773438 340.398438 C 316.347656 340.398438 315.195312 341.550781 315.195312 342.980469 C 315.195312 344.40625 316.347656 345.558594 317.773438 345.558594 Z M 317.773438 345.578125 " fill-opacity="1" fill-rule="nonzero"/></g></svg>