<?xml version="1.0" encoding="UTF-8"?>
<svg id="Layer_1" xmlns="http://www.w3.org/2000/svg" version="1.1" viewBox="0 0 122.9 92.8">
  <!-- Generator: Adobe Illustrator 29.6.1, SVG Export Plug-In . SVG Version: 2.1.1 Build 9)  -->
  <defs>
    <style>
      .st0, .st1, .st2 {
        fill-rule: evenodd;
      }

      .st0, .st3 {
        fill: #bfa55a;
      }

      .st1 {
        fill: #ece9e2;
      }

      .st2 {
        fill: #d94f46;
      }
    </style>
  </defs>
  <path class="st2" d="M90.1,21.7h28.8c2.2,0,4,1.8,4,4v63.2c0,2.2-1.8,4-4,4h-28.8c-2.2,0-4-1.8-4-4V25.6c0-2.2,1.8-4,4-3.9Z"/>
  <path class="st0" d="M11.9,50c-.9,0-1.7-.8-1.7-1.7s.8-1.7,1.7-1.7h16.7c.9,0,1.7.8,1.7,1.7s-.8,1.7-1.7,1.7H11.9Z"/>
  <path class="st0" d="M11.9,40.5c-.9,0-1.7-.8-1.7-1.7s.8-1.7,1.7-1.7h16.7c.9,0,1.7.8,1.7,1.7s-.8,1.7-1.7,1.7H11.9Z"/>
  <path class="st0" d="M11.9,59.6c-.9,0-1.7-.8-1.7-1.7s.8-1.7,1.7-1.7h37.5c.9,0,1.7.8,1.7,1.7s-.8,1.7-1.7,1.7H11.9Z"/>
  <path class="st2" d="M12.2,4.3v2.7c0,.8.6,1.4,1.4,1.5h2.2c.2,1,.6,2,1.1,2.9l-1.7,1.7c-.6.6-.6,1.5,0,2.1l2.1,2.1c.6.6,1.5.6,2,0,0,0,0,0,0,0l1.6-1.6c.8.6,1.8,1,2.7,1.3v2.4c0,.8.6,1.5,1.4,1.5h3c.8,0,1.4-.7,1.5-1.5v-2.3c1-.2,2-.6,2.8-1.1l1.7,1.7c.6.6,1.5.6,2,0,0,0,0,0,0,0l2.1-2.1c.5-.6.5-1.4,0-2l-1.5-1.7c.5-.8,1-1.8,1.3-2.7h2.4c.8,0,1.5-.6,1.5-1.4,0,0,0,0,0,0v-3c0-.2,0-.3,0-.5h61c1.5,0,2.7,1.2,2.7,2.6v3.9h4V3c0-1.6-1.4-3-3-3H3C1.4,0,0,1.4,0,3v70.1c0,1.7,1.3,3,3,3h73.1v-11.6H6.7c-1.5,0-2.7-1.2-2.7-2.7V7c0-1.5,1.2-2.6,2.7-2.7h5.5Z"/>
  <path class="st1" d="M32.8,4.3c.9,3.2-1,6.4-4.1,7.3-3.2.9-6.4-1-7.3-4.1-.3-1-.3-2.1,0-3.2h11.5Z"/>
  <path class="st2" d="M66.2,14.7l2.4,2.4c.6.6.6,1.6,0,2.3,0,0,0,0,0,0l-1.9,1.9c.5,1,.9,2.1,1.2,3.2h2.5c.9,0,1.6.7,1.6,1.6v3.4c0,.9-.7,1.6-1.6,1.6,0,0,0,0,0,0h-2.7c-.3,1.1-.8,2.1-1.4,3.1l1.8,1.7c.6.6.6,1.6,0,2.3,0,0,0,0,0,0l-2.4,2.4c-.6.6-1.6.6-2.3,0,0,0,0,0,0,0l-1.9-1.9c-1,.5-2.1.9-3.2,1.2v2.5c0,.9-.7,1.6-1.6,1.6h-3.4c-.9,0-1.6-.7-1.6-1.6v-2.7c-1.1-.3-2.1-.8-3.1-1.4l-1.8,1.8c-.6.6-1.6.6-2.3,0l-2.4-2.4c-.6-.6-.6-1.6,0-2.3l1.9-1.9c-.5-1-.9-2.1-1.2-3.2h-2.5c-.9,0-1.6-.7-1.6-1.6v-3.4c0-.9.7-1.6,1.6-1.6h2.7c.3-1.1.8-2.1,1.4-3.1l-1.8-1.8c-.6-.6-.6-1.6,0-2.3l2.4-2.4c.6-.6,1.6-.6,2.3,0,0,0,0,0,0,0l1.9,1.9c1-.5,2.1-.9,3.2-1.2v-2.5c0-.9.7-1.6,1.6-1.6h3.4c.9,0,1.6.7,1.6,1.6v2.7c1.1.3,2.1.8,3.1,1.4l1.8-1.8c.6-.6,1.6-.6,2.3,0,0,0,0,0,0,0h0Z"/>
  <path class="st1" d="M55.4,20.7c3.7,0,6.6,2.9,6.6,6.6s-2.9,6.6-6.6,6.6c-3.7,0-6.6-2.9-6.6-6.6,0,0,0,0,0,0,0-3.6,3-6.6,6.6-6.6Z"/>
  <path class="st0" d="M41,80.4h27.6c0,4.8,2,9,7.4,12.4h-42.3c4.3-3.1,7.4-6.9,7.4-12.4Z"/>
  <rect class="st3" x="114.2" y="38.1" width="2.9" height="1.6"/>
  <path class="st1" d="M104.5,76.4c2.4,0,4.3,1.9,4.3,4.3,0,2.4-1.9,4.3-4.3,4.3-2.4,0-4.3-1.9-4.3-4.3h0c0-2.4,1.9-4.3,4.3-4.3Z"/>
  <path class="st1" d="M91.5,34.3h26c.5,0,.8.4.8.8v4.5c0,.5-.4.8-.8.8h-26c-.5,0-.8-.4-.8-.8v-4.5c0-.5.4-.8.8-.8Z"/>
</svg>