<?xml version="1.0" encoding="UTF-8"?>
<svg id="Layer_1" xmlns="http://www.w3.org/2000/svg" version="1.1" viewBox="0 0 116.4 122.9">
  <!-- Generator: Adobe Illustrator 29.6.1, SVG Export Plug-In . SVG Version: 2.1.1 Build 9)  -->
  <defs>
    <style>
      .st0 {
        fill: #bfa55a;
      }

      .st0, .st1, .st2 {
        fill-rule: evenodd;
      }

      .st1 {
        fill: #ece9e2;
      }

      .st2 {
        fill: #d94f46;
      }
    </style>
  </defs>
  <path class="st1" d="M23.6,73h35.6c1.2,0,2.2-1,2.2-2.2s-1-2.2-2.2-2.2H23.6c-1.2,0-2.2,1-2.2,2.2s1,2.2,2.2,2.2Z"/>
  <path class="st0" d="M78.1,80.1H23.6c-1.2,0-2.2,1-2.2,2.2s1,2.2,2.2,2.2h54.5c1.2,0,2.2-1,2.2-2.2s-1-2.2-2.2-2.2Z"/>
  <path class="st2" d="M8,50.7h0c0,0,15.9-4.6,15.9-4.6l-8.1-21.8L0,28.8l7.2,22.1v62.7c0,5.1,4.2,9.3,9.3,9.3h90.6c5.1,0,9.3-4.2,9.3-9.3v-62.9H8ZM107.3,90.1c0,.3,0,.6-.3.8s-.5.3-.8.3H17.4c-.3,0-.6,0-.8-.3-.2-.2-.3-.5-.3-.8v-27c0-.3.1-.6.3-.8s.5-.3.8-.3h88.8c.3,0,.6.1.8.3.2.2.3.5.3.8v27Z"/>
  <polygon class="st2" points="33.4 43.4 52.4 38 44.3 16.3 26.1 21.4 33.4 43.4 33.4 43.4"/>
  <polygon class="st2" points="61.9 35.3 83.3 29.2 75.3 7.5 54.6 13.3 61.9 35.3 61.9 35.3"/>
  <polygon class="st2" points="92.9 26.4 108.8 21.9 101.5 0 85.6 4.5 92.9 26.4 92.9 26.4"/>
</svg>