<?xml version="1.0" encoding="UTF-8"?>
<svg id="Layer_1" xmlns="http://www.w3.org/2000/svg" version="1.1" viewBox="0 0 120.7 122.9">
  <!-- Generator: Adobe Illustrator 29.6.1, SVG Export Plug-In . SVG Version: 2.1.1 Build 9)  -->
  <defs>
    <style>
      .st0 {
        fill: #d94f46;
      }

      .st1 {
        fill: #ece9e2;
      }

      .st2 {
        fill: #bfa55a;
      }

      .st3 {
        fill: #ece9e2;
      }
    </style>
  </defs>
  <path class="st0" d="M79.9,78.6h0c0-.6,0-1.3-.2-1.9,0-.7-.2-1.3-.3-2,0-.7-.3-1.3-.4-1.9-.2-.6-.3-1.3-.5-1.9-.2-.6-.4-1.3-.6-1.9-.2-.6-.5-1.2-.7-1.8-.3-.6-.5-1.2-.8-1.8-.3-.6-.6-1.2-.9-1.7-.3-.6-.6-1.1-1-1.7-.3-.5-.7-1.1-1-1.6-.4-.5-.7-1.1-1.1-1.6s-.8-1-1.2-1.5c-.4-.5-.8-1-1.2-1.4-.4-.5-.9-.9-1.3-1.4-.5-.5-.9-.9-1.4-1.4-.5-.4-1-.8-1.5-1.3-.5-.4-1-.8-1.5-1.2-.5-.4-1-.7-1.5-1.1s-1.1-.7-1.6-1-1.1-.7-1.7-1c-.5-.3-1.1-.6-1.7-.9-.6-.3-1.1-.5-1.7-.8h-.2c-.6-.3-1.2-.5-1.8-.7-.6-.2-1.2-.4-1.9-.6-.6-.2-1.3-.4-1.9-.5-.6-.2-1.3-.3-1.9-.4-.7,0-1.3-.2-2-.4-.7,0-1.3-.2-2-.2-1.3,0-2.7-.2-4.1-.2h-2.1c-.7,0-1.4,0-2,.1-.6,0-1.3.2-2,.2-.7.1-1.3.2-2,.4-.7,0-1.3.3-1.9.4-.6.2-1.3.3-1.9.5-.6.2-1.3.4-1.9.6-.6.2-1.2.5-1.8.7-.6.3-1.2.5-1.8.8s-1.2.6-1.7.9c-.6.3-1.2.6-1.7,1-.6.3-1.1.7-1.6,1-.5.3-1,.7-1.6,1.1-.5.4-1,.8-1.5,1.2-.5.4-1,.8-1.5,1.2-.5.4-.9.9-1.4,1.3-.4.5-.9.9-1.3,1.4-.4.5-.8,1-1.3,1.5-.4.5-.8,1-1.2,1.5-.4.5-.7,1-1.1,1.5-.4.5-.7,1.1-1,1.6-.3.5-.7,1.1-1,1.7-.3.6-.6,1.1-.9,1.7-.3.6-.5,1.2-.8,1.8v.2c-.2.6-.5,1.2-.7,1.8-.2.6-.4,1.2-.6,1.8-.2.6-.4,1.3-.5,1.9-.2.6-.3,1.3-.4,1.9-.1.7-.2,1.3-.3,2-.1.7-.2,1.3-.2,2-.1,1.3-.2,2.7-.2,4.1v2.1c0,.7,0,1.4,0,2,0,.7.2,1.3.2,2,.1.7.2,1.3.4,2,0,.7.3,1.3.4,2,.2.6.3,1.3.5,1.9.2.6.4,1.3.6,1.9.2.6.5,1.2.7,1.9.2.6.5,1.2.8,1.8s.6,1.2.9,1.7c.3.6.6,1.2,1,1.7.3.5.7,1.1,1,1.6.3.5.7,1.1,1.1,1.6.4.5.8,1,1.2,1.5.4.5.8,1,1.2,1.4.4.5.9.9,1.3,1.4.4.5.9.9,1.4,1.3.5.4,1,.9,1.5,1.3s1,.8,1.5,1.2c.5.4,1,.7,1.5,1.1.5.4,1.1.7,1.7,1,.5.3,1.1.7,1.7,1,.5.3,1.1.6,1.7.9.6.3,1.2.5,1.7.8h.2c.6.2,1.2.5,1.8.7.6.2,1.2.4,1.8.6.6.2,1.2.4,1.9.5.6.2,1.3.3,1.9.4.7,0,1.3.2,2,.3s1.3.2,2,.2,1.4,0,2,.2h2c1.4,0,2.7,0,4.1-.2.7,0,1.4-.2,2-.2.7,0,1.3-.2,2-.4.7,0,1.3-.3,2-.4.6-.2,1.3-.3,1.9-.5.6-.2,1.3-.4,1.9-.6.6-.2,1.2-.5,1.8-.7.6-.2,1.2-.5,1.8-.8.6-.3,1.2-.6,1.7-.9.6-.3,1.2-.6,1.7-1,.5-.3,1.1-.7,1.6-1s1-.7,1.6-1.1c.5-.4,1-.8,1.5-1.2.5-.4,1-.8,1.4-1.2.5-.4.9-.9,1.4-1.3.4-.5.9-.9,1.3-1.4.4-.5.9-1,1.3-1.5s.8-1,1.2-1.5c.4-.5.7-1,1.1-1.6.4-.5.7-1.1,1-1.6s.6-1.1,1-1.7c.3-.6.6-1.1.9-1.7.3-.6.5-1.2.8-1.8v-.2c.3-.6.5-1.2.7-1.8.2-.6.4-1.2.6-1.8.2-.6.4-1.3.5-1.9.2-.6.3-1.3.4-1.9,0-.7.2-1.3.3-2s.2-1.3.2-2,0-1.3.2-2v-4.1c0-.7,0-1.4-.2-2ZM12.2,60.6l.2-.2c0,0,.1-.1.2-.2.2-.2.3-.5.6-.7.3-.4.6-.7.9-1h0c0,0,0,0,0-.1.3-.3.6-.6.9-.9s.8-.8,1.1-1.1c0,0,0,0,0,0h0c.4-.5.9-.9,1.3-1.2.4-.4.9-.7,1.3-1,.4-.3.9-.7,1.4-1,.5-.3.9-.6,1.4-.9s1-.6,1.5-.9c.5-.3,1-.5,1.6-.8.5-.2,1-.5,1.6-.7.5-.2,1.1-.5,1.6-.7.5-.2,1.1-.4,1.7-.6.6-.2,1.1-.3,1.7-.5.6-.2,1.1-.3,1.7-.4h.6c0,0,.2,0,.2,0,.1,0,.3,0,.3,0,0,0,0,0-.1,0h0c-1,.9-2,1.8-2.9,2.7-1.1,1.1-2.1,2.1-3.1,3.2-.1.1-.2.3-.4.4-.8.9-1.6,1.9-2.3,2.8-.1.1-.2.3-.3.4-.9,1.1-1.8,2.3-2.6,3.4h0c0,0,0,.1-.1.2h-10.2l.2-.2ZM18.9,85h18.9v15.3h0c0,0-13.7,0-13.7,0-.8-1.2-1.5-2.5-2.1-3.8-.6-1.4-1.2-2.7-1.6-4-.4-1.3-.8-2.6-1-3.9-.3-1.2-.5-2.4-.5-3.6h0s0,0,0-.1ZM19,80.5c0-1.2.3-2.4.6-3.5.3-1.3.7-2.6,1.2-3.9.5-1.3,1-2.7,1.7-4,.6-1.3,1.4-2.6,2.2-3.9h13.1v15.3h-18.8ZM4.6,79.6h0c0-.5,0-.9.1-1.3,0-.5,0-.9.2-1.3,0-.4,0-.9.2-1.3.1-.6.2-1.1.4-1.7,0-.6.3-1.1.5-1.7.2-.5.4-1.1.5-1.6.2-.5.4-1.1.6-1.6h0c.1-.4.3-.8.5-1.1.2-.3.3-.7.5-1,.2-.3.3-.6.5-.9.1-.2.3-.5.4-.8h10.5c-.7,1.2-1.3,2.4-1.8,3.6-.5,1.3-1.1,2.6-1.5,3.9-.5,1.3-.8,2.7-1.1,4h.1c-.3,1.2-.5,2.5-.6,3.7h-.2s0,0,0,.1H4.6v-1ZM9.1,100.3c0-.2-.3-.5-.4-.7-.2-.3-.3-.6-.5-.9s-.3-.7-.5-1-.3-.7-.5-1c-.2-.6-.4-1.1-.6-1.6-.2-.5-.4-1.1-.6-1.7-.2-.5-.3-1.1-.5-1.7-.2-.6-.3-1.1-.4-1.7,0-.5-.2-1-.2-1.4-.1-.4-.2-.8-.2-1.3h0c-.1-.4-.1-.8-.1-1.2v-1h9.8c0,1.3.2,2.5.4,3.8.3,1.3.6,2.7,1,4,.4,1.3.9,2.6,1.4,3.9h0c.5,1.1,1.1,2.2,1.7,3.4h0s0,0,0,.1h-9.8ZM33.6,117.9h-.8l.2-.3c-.6-.1-1.1-.2-1.7-.4-.6-.2-1.1-.3-1.7-.5-.6-.2-1.1-.4-1.6-.5-.5-.2-1.1-.4-1.6-.6h-.1c-.5-.2-1.1-.5-1.6-.7s-1-.5-1.6-.8c-.5-.3-1-.6-1.5-.9s-1-.6-1.5-.9c-.5-.3-.9-.6-1.4-1-.5-.3-.9-.7-1.3-1-.4-.3-.9-.7-1.3-1.1-.4-.4-.8-.8-1.2-1.2-.6-.6-1.2-1.3-1.8-1.9-.2-.3-.5-.5-.7-.8l-.3-.4h.2,0c0,0,9.6,0,9.6,0,.8,1.2,1.7,2.4,2.6,3.5.9,1.1,2,2.3,3.1,3.5h.2c1.1,1,2.1,2.1,3.3,3.2.9.9,1.9,1.8,2.9,2.5h-.7c.1.1.3.3.4.4ZM37.9,115.3s0,0-.1,0v.2c-1-.8-1.9-1.7-2.8-2.5-1-1-2-1.9-3-2.8-.9-.9-1.8-1.9-2.7-2.8-.7-.8-1.4-1.6-2-2.4h.3c0,0-.1-.1-.2-.2h10.5v10.6ZM37.9,60.8h-9.9s0,0,0-.1h-.2c.6-.8,1.3-1.6,1.9-2.4.8-.9,1.6-1.8,2.5-2.8.9-.9,1.8-1.9,2.8-2.8.8-.8,1.7-1.6,2.6-2.4v.3c0,0,.1-.1.2-.2v10.4ZM46.3,47.8h.2c0,0-.1-.1-.2-.2,0,0,.4,0,.4.2h.7c.6,0,1.1.3,1.7.4.5.2,1.1.3,1.6.5.5.1,1.1.3,1.6.5s1.1.4,1.6.6h0c.5.2,1.1.4,1.6.7.5.3,1,.5,1.5.8.5.3,1.1.6,1.5.9.4.3.9.6,1.4.9s.9.7,1.4,1c.4.3.9.6,1.3,1,.5.3.9.7,1.3,1.1.4.4.9.8,1.2,1.2s.6.7.9,1c.3.3.6.7.9,1s.5.5.7.8l.3.4h-.3,0c0,0-10.2,0-10.2,0-.8-1.1-1.7-2.3-2.6-3.4-1-1.2-2-2.4-3-3.5-1-1.1-2-2.2-3.2-3.3-.9-.9-1.9-1.8-2.9-2.7h.4ZM42.4,80.5v-15.3h13.1c.8,1.3,1.6,2.6,2.2,3.9.7,1.3,1.2,2.7,1.7,4,.5,1.3.9,2.6,1.2,3.9.3,1.1.5,2.3.6,3.5h-18.8ZM61.3,85c0,1.2-.2,2.4-.5,3.6-.2,1.3-.6,2.6-1,3.9-.4,1.4-1,2.7-1.6,4-.6,1.3-1.3,2.5-2.1,3.8h-13.7v-15.3h18.9ZM42.3,50.4s0,0,.1,0v-.2c.9.8,1.8,1.6,2.7,2.4,1,1,1.9,1.9,2.8,2.8.9.9,1.7,1.8,2.5,2.8.7.8,1.3,1.6,1.9,2.4h-.2s0,0,0,.1h-9.9v-10.4ZM45.2,112.9c-.9.8-1.8,1.7-2.8,2.5h0c0,0,0,0-.1,0v-10.6h10.5,0s.1,0,.1,0c-.6.8-1.3,1.6-2,2.4-.8.9-1.7,1.9-2.7,2.8,0,0,0,0,0,0,0,0,0,0,0,0,0,0,0,0,0,0-.9.9-1.8,1.8-2.8,2.6,0,0,0,0,0,0h0ZM67.8,105.4v-.2c-.2.3-.4.5-.7.8s-.6.6-.9,1c-.3.3-.6.6-.9,1-.4.4-.8.8-1.2,1.2s-.9.8-1.3,1.1c-.4.4-.9.7-1.3,1-.4.3-.9.7-1.4,1-.5.3-1,.6-1.4.9-.5.3-1,.6-1.5.9-.5.3-1,.6-1.6.8-.5.2-1.1.5-1.6.7-.5.2-1.1.5-1.6.7-.5.2-1.1.4-1.6.6s-1.1.3-1.7.5c-.6.2-1.1.3-1.7.4l-.8.2c.1-.1.2-.2.3-.3h-.4c1-.8,2-1.7,2.9-2.6,1.2-1.1,2.3-2.2,3.3-3.3,1.1-1.1,2.1-2.3,3.1-3.5v-.2c.9-1.2,1.8-2.3,2.6-3.5h9.6l-.3.4h.4l-.3.4ZM75.6,86.1c0,.4,0,.8,0,1.2,0,.4-.2.9-.2,1.3s-.2.8-.2,1.3c0,.6-.3,1.1-.4,1.7-.2.6-.3,1.2-.5,1.7s-.4,1.1-.6,1.6c-.2.5-.4,1.1-.6,1.7-.2.3-.3.6-.5,1-.2.3-.3.7-.5,1s-.3.6-.5.9c0,.2-.3.5-.4.7h-9.9c.6-1.2,1.2-2.3,1.7-3.5.5-1.3,1-2.6,1.4-3.9.4-1.3.7-2.7,1-4,.2-1.3.4-2.5.4-3.8h9.8c0,.1,0,.1,0,.1v1ZM75.6,80.5h-9.9c-.1-1.2-.3-2.5-.6-3.8s-.7-2.7-1.1-4c-.1-.4-.2-.7-.4-1.1-.4-.9-.8-1.9-1.1-2.8,0,0,0,0,0,0h0c-.5-1.1-1.1-2.3-1.8-3.5h0s0,0,0-.1h10.4c.1.3.3.5.4.8.2.3.3.6.5.9s.3.7.5,1c.1.2.2.3.3.5,0,0,0,0,0,.1,0,.1.1.3.2.4.2.6.4,1.1.6,1.6.2.6.4,1.1.6,1.7.2.5.3,1.1.5,1.7,0,.2,0,.3.1.5,0,.3.1.5.2.8,0,.1,0,.2,0,.4,0,.5.2,1,.2,1.4.1.4.2.8.2,1.3h0c0,.4,0,.8,0,1.2v1Z"/>
  <path class="st2" d="M107.5,66.5c0-1.2-.9-2.2-2-2.2h-19.9c.6,1.4,1.1,2.8,1.5,4.3h18.4c1.1,0,2-1,2-2.2h0Z"/>
  <path class="st2" d="M107.5,57c0-1.2-.9-2.2-2-2.2h-25c1,1.4,1.8,2.8,2.6,4.2h22.4c1.1,0,2-1,2-2.2v.2Z"/>
  <path class="st3" d="M107.3,47.6v-23.4h-59.8v10.1c10.3,1.6,19.6,6.4,26.8,13.3h33Z"/>
  <path class="st0" d="M119.2,1.5h0c-1-.9-2.2-1.5-3.7-1.5H40.5c-1.3,0-2.5.5-3.5,1.4,0,0,0,.1-.2.2-.9.9-1.5,2.2-1.5,3.7v28.7c1.5-.2,3.1-.2,4.7-.2v-15h76v58.3c0,0,0,.3-.2.3s-.2.2-.3.2h-26.6c.2,1.5.2,3.1.3,4.7h26.3c1.4,0,2.7-.6,3.7-1.5.9-1,1.5-2.2,1.5-3.7V5.2c0-1.4-.6-2.7-1.5-3.7Z"/>
  <circle class="st2" cx="46.4" cy="10.1" r="3.4"/>
  <path class="st1" d="M70.2,6.7c-1.9,0-3.4,1.5-3.4,3.4s1.5,3.4,3.4,3.4,3.4-1.5,3.4-3.4-1.5-3.4-3.4-3.4Z"/>
  <path class="st1" d="M58.3,6.7c-1.9,0-3.4,1.5-3.4,3.4s1.5,3.4,3.4,3.4,3.4-1.5,3.4-3.4-1.5-3.4-3.4-3.4Z"/>
  <circle class="st1" cx="46.4" cy="10.1" r="3.4"/>
</svg>